<?xml version="1.0" encoding="UTF-8" standalone="no"?>
<!-- Created with Inkscape (http://www.inkscape.org/) -->

<svg
   xmlns:dc="http://purl.org/dc/elements/1.1/"
   xmlns:cc="http://creativecommons.org/ns#"
   xmlns:rdf="http://www.w3.org/1999/02/22-rdf-syntax-ns#"
   xmlns:svg="http://www.w3.org/2000/svg"
   xmlns="http://www.w3.org/2000/svg"
   xmlns:sodipodi="http://sodipodi.sourceforge.net/DTD/sodipodi-0.dtd"
   xmlns:inkscape="http://www.inkscape.org/namespaces/inkscape"
   width="59.705868mm"
   height="80.877831mm"
   viewBox="0 0 59.705868 80.877831"
   id="svg7326"
   version="1.1"
   inkscape:version="0.91+devel+osxmenu r12922"
   sodipodi:docname="SX.svg">
  <defs
     id="defs7328" />
  <sodipodi:namedview
     id="base"
     pagecolor="#000000"
     bordercolor="#666666"
     borderopacity="1.0"
     inkscape:pageopacity="0"
     inkscape:pageshadow="2"
     inkscape:zoom="1.4142136"
     inkscape:cx="176.1224"
     inkscape:cy="98.294991"
     inkscape:document-units="mm"
     inkscape:current-layer="layer1"
     showgrid="false"
     fit-margin-top="0"
     fit-margin-left="0"
     fit-margin-right="0"
     fit-margin-bottom="0"
     inkscape:window-width="1310"
     inkscape:window-height="1329"
     inkscape:window-x="1203"
     inkscape:window-y="23"
     inkscape:window-maximized="0"
     inkscape:snap-page="true"
     showguides="true"
     inkscape:guide-bbox="true"
     inkscape:snap-text-baseline="true"
     inkscape:snap-center="true"
     inkscape:snap-object-midpoints="true"
     inkscape:snap-midpoints="true"
     inkscape:snap-smooth-nodes="true"
     inkscape:snap-intersection-paths="true"
     inkscape:object-paths="true"
     inkscape:snap-bbox="true"
     inkscape:bbox-paths="true"
     inkscape:bbox-nodes="true"
     inkscape:snap-bbox-edge-midpoints="true"
     inkscape:snap-bbox-midpoints="true" />
  <metadata
     id="metadata7331">
    <rdf:RDF>
      <cc:Work
         rdf:about="">
        <dc:format>image/svg+xml</dc:format>
        <dc:type
           rdf:resource="http://purl.org/dc/dcmitype/StillImage" />
        <dc:title></dc:title>
      </cc:Work>
    </rdf:RDF>
  </metadata>
  <g
     inkscape:label="Layer 1"
     inkscape:groupmode="layer"
     id="layer1"
     transform="translate(-56.703612,-97.433109)">
    <g
       transform="matrix(0.26458333,0,0,0.26458333,-23.46223,289.76678)"
       id="g7935">
      <g
         id="g4266"
         style="opacity:0.6">
        <rect
           style="opacity:0.9;fill:#000000;fill-opacity:1;stroke:#ffffff;stroke-width:2;stroke-miterlimit:4;stroke-dasharray:none;stroke-opacity:1"
           x="318.16901"
           y="-712.75043"
           width="194.3"
           height="274.32001"
           ry="8.0901003"
           rx="8.0901003"
           id="rect7177" />
        <text
           id="text7179"
           font-size="24px"
           xml:space="preserve"
           line-height="125%"
           y="-624.56451"
           x="338.52631"
           sodipodi:linespacing="125%"
           style="font-size:82.12612152px;line-height:125%;font-family:Arial;text-align:center;text-anchor:middle;fill:#ffffff;stroke-width:3.42192197;fill-opacity:1"><tspan
             id="tspan7181"
             font-size="24px"
             line-height="125%"
             y="-624.56451"
             x="341.68805"
             style="font-style:normal;font-variant:normal;font-weight:900;font-stretch:normal;font-size:82.12612152px;line-height:125%;font-family:Avenir;-inkscape-font-specification:'Avenir Heavy';text-align:start;text-anchor:start;stroke-width:3.42192197;fill:#ffffff;fill-opacity:1">?</tspan></text>
        <text
           style="font-size:82.12612152px;line-height:125%;font-family:Arial;text-align:center;text-anchor:middle;fill:#ffffff;stroke-width:3.42192197;fill-opacity:1"
           sodipodi:linespacing="125%"
           x="-492.43536"
           y="523.61639"
           line-height="125%"
           xml:space="preserve"
           font-size="24px"
           id="text7191"
           transform="scale(-1)"><tspan
             style="font-style:normal;font-variant:normal;font-weight:900;font-stretch:normal;font-size:82.12612152px;line-height:125%;font-family:Avenir;-inkscape-font-specification:'Avenir Heavy';text-align:start;text-anchor:start;stroke-width:3.42192197;fill:#ffffff;fill-opacity:1"
             x="-489.27362"
             y="523.61639"
             line-height="125%"
             font-size="24px"
             id="tspan7193">?</tspan></text>
        <g
           transform="rotate(-53.564)"
           style="font-style:normal;font-variant:normal;font-weight:normal;font-stretch:normal;font-size:32px;line-height:125%;font-family:Avenir;-inkscape-font-specification:Avenir;letter-spacing:0px;word-spacing:0px;fill:none;fill-opacity:1;stroke:#ffffff;stroke-width:1px;stroke-linecap:butt;stroke-linejoin:miter;stroke-opacity:1"
           aria-label="Quoifoer"
           id="text4211">
          <path
             d="m 649.46368,9.0624399 -20.592,0 q -3.984,0 -7.392,-1.152 -3.36,-1.2 -5.808,-3.456 -2.448,-2.256 -3.84,-5.472 -1.392,-3.216 -1.392,-7.344 0,-3.8399999 1.392,-7.0559999 1.44,-3.216 3.888,-5.52 2.448,-2.304 5.76,-3.552 3.312,-1.296 7.104,-1.296 3.792,0 7.104,1.296 3.312,1.296 5.76,3.6 2.448,2.304 3.84,5.52 1.44,3.168 1.44,7.0079999 0,1.824 -0.432,3.552 -0.384,1.728 -1.2,3.264 -0.816,1.53600002 -2.112,2.784 -1.296,1.2 -3.024,1.968 l 0,0.096 9.504,0 0,5.76 z m -31.248,-17.424 q 0,2.208 0.816,4.128 0.816,1.92 2.208,3.36000002 1.44,1.392 3.312,2.20799998 1.872,0.816 4.032,0.816 2.16,0 4.032,-0.816 1.872,-0.81599998 3.264,-2.20799998 1.44,-1.44000002 2.256,-3.36000002 0.816,-1.92 0.816,-4.128 0,-2.2079999 -0.816,-4.1279999 -0.816,-1.92 -2.256,-3.312 -1.392,-1.44 -3.264,-2.256 -1.872,-0.816 -4.032,-0.816 -2.16,0 -4.032,0.816 -1.872,0.816 -3.312,2.256 -1.392,1.392 -2.208,3.312 -0.816,1.92 -0.816,4.1279999 z"
             style="font-style:normal;font-variant:normal;font-weight:800;font-stretch:normal;font-size:48px;font-family:Avenir;-inkscape-font-specification:'Avenir Ultra-Bold';fill:none;stroke:#ffffff;stroke-opacity:1"
             id="path4316" />
          <path
             d="m 674.69068,9.0624399 -6.912,0 0,-3.168 -0.096,0 q -0.384,0.672 -1.008,1.344 -0.576,0.672 -1.44,1.2 -0.864,0.528 -1.968,0.864 -1.104,0.336 -2.4,0.336 -2.736,0 -4.464,-0.816 -1.68,-0.864 -2.64,-2.352 -0.912,-1.488 -1.248,-3.504 -0.288,-2.01599998 -0.288,-4.368 l 0,-12.8639999 7.2,0 0,11.4239999 q 0,1.008 0.048,2.11200002 0.096,1.056 0.432,1.96799998 0.384,0.912 1.104,1.488 0.768,0.576 2.16,0.576 1.392,0 2.256,-0.48 0.864,-0.528 1.296,-1.344 0.48,-0.86399998 0.624,-1.91999998 0.144,-1.05600002 0.144,-2.20800002 l 0,-11.6159999 7.2,0 0,23.3279999 z"
             style="font-style:normal;font-variant:normal;font-weight:800;font-stretch:normal;font-size:48px;font-family:Avenir;-inkscape-font-specification:'Avenir Ultra-Bold';fill:none;stroke:#ffffff;stroke-opacity:1"
             id="path4318" />
          <path
             d="m 678.92518,-2.6015601 q 0,-2.784 1.008,-5.04 1.008,-2.256 2.736,-3.8399999 1.776,-1.632 4.128,-2.496 2.4,-0.864 5.088,-0.864 2.688,0 5.04,0.864 2.4,0.864 4.128,2.496 1.776,1.5839999 2.784,3.8399999 1.008,2.256 1.008,5.04 0,2.78400002 -1.008,5.04 -1.008,2.256 -2.784,3.888 -1.728,1.584 -4.128,2.448 -2.352,0.864 -5.04,0.864 -2.688,0 -5.088,-0.864 -2.352,-0.864 -4.128,-2.448 -1.728,-1.632 -2.736,-3.888 -1.008,-2.25599998 -1.008,-5.04 z m 7.2,0 q 0,2.64000002 1.488,4.272 1.536,1.632 4.272,1.632 2.736,0 4.224,-1.632 1.536,-1.63199998 1.536,-4.272 0,-2.64 -1.536,-4.272 -1.488,-1.632 -4.224,-1.632 -2.736,0 -4.272,1.632 -1.488,1.632 -1.488,4.272 z"
             style="font-style:normal;font-variant:normal;font-weight:800;font-stretch:normal;font-size:48px;font-family:Avenir;-inkscape-font-specification:'Avenir Ultra-Bold';fill:none;stroke:#ffffff;stroke-opacity:1"
             id="path4320" />
          <path
             d="m 709.13518,-14.26556 7.2,0 0,23.3279999 -7.2,0 0,-23.3279999 z m -0.576,-7.344 q 0,-1.728 1.2,-2.928 1.248,-1.248 2.976,-1.248 1.728,0 2.928,1.248 1.248,1.2 1.248,2.928 0,1.728 -1.248,2.976 -1.2,1.2 -2.928,1.2 -1.728,0 -2.976,-1.2 -1.2,-1.248 -1.2,-2.976 z"
             style="font-style:normal;font-variant:normal;font-weight:800;font-stretch:normal;font-size:48px;font-family:Avenir;-inkscape-font-specification:'Avenir Ultra-Bold';fill:none;stroke:#ffffff;stroke-opacity:1"
             id="path4322" />
          <path
             d="m 724.00393,-8.5055601 -4.752,0 0,-5.7599999 4.752,0 0,-4.128 q 0,-1.92 0.336,-3.6 0.336,-1.728 1.296,-3.024 0.96,-1.296 2.736,-2.016 1.824,-0.768 4.752,-0.768 1.104,0 2.16,0.096 1.056,0.096 2.064,0.336 l -0.336,6.096 q -0.624,-0.24 -1.152,-0.336 -0.528,-0.144 -1.2,-0.144 -1.728,0 -2.592,0.768 -0.864,0.72 -0.864,3.024 l 0,3.696 5.328,0 0,5.7599999 -5.328,0 0,17.568 -7.2,0 0,-17.568 z"
             style="font-style:normal;font-variant:normal;font-weight:800;font-stretch:normal;font-size:48px;font-family:Avenir;-inkscape-font-specification:'Avenir Ultra-Bold';fill:none;stroke:#ffffff;stroke-opacity:1"
             id="path4324" />
          <path
             d="m 738.36268,-2.6015601 q 0,-2.784 1.008,-5.04 1.008,-2.256 2.736,-3.8399999 1.776,-1.632 4.128,-2.496 2.4,-0.864 5.088,-0.864 2.688,0 5.04,0.864 2.4,0.864 4.128,2.496 1.776,1.5839999 2.784,3.8399999 1.008,2.256 1.008,5.04 0,2.78400002 -1.008,5.04 -1.008,2.256 -2.784,3.888 -1.728,1.584 -4.128,2.448 -2.352,0.864 -5.04,0.864 -2.688,0 -5.088,-0.864 -2.352,-0.864 -4.128,-2.448 -1.728,-1.632 -2.736,-3.888 -1.008,-2.25599998 -1.008,-5.04 z m 7.2,0 q 0,2.64000002 1.488,4.272 1.536,1.632 4.272,1.632 2.736,0 4.224,-1.632 1.536,-1.63199998 1.536,-4.272 0,-2.64 -1.536,-4.272 -1.488,-1.632 -4.224,-1.632 -2.736,0 -4.272,1.632 -1.488,1.632 -1.488,4.272 z"
             style="font-style:normal;font-variant:normal;font-weight:800;font-stretch:normal;font-size:48px;font-family:Avenir;-inkscape-font-specification:'Avenir Ultra-Bold';fill:none;stroke:#ffffff;stroke-opacity:1"
             id="path4326" />
          <path
             d="m 790.55668,5.0304399 q -1.728,2.208 -4.368,3.408 -2.64,1.2 -5.472,1.2 -2.688,0 -5.088,-0.864 -2.352,-0.864 -4.128,-2.448 -1.728,-1.632 -2.736,-3.888 -1.008,-2.25599998 -1.008,-5.04 0,-2.784 1.008,-5.04 1.008,-2.256 2.736,-3.8399999 1.776,-1.632 4.128,-2.496 2.4,-0.864 5.088,-0.864 2.496,0 4.512,0.864 2.064,0.864 3.456,2.496 1.44,1.5839999 2.208,3.8399999 0.768,2.256 0.768,5.04 l 0,2.25600002 -16.704,0 q 0.432,2.06399998 1.872,3.31199998 1.44,1.2 3.552,1.2 1.776,0 2.976,-0.768 1.248,-0.816 2.16,-2.064 l 5.04,3.696 z m -6.096,-10.272 q 0.048,-1.824 -1.2,-3.12 -1.248,-1.296 -3.216,-1.296 -1.2,0 -2.112,0.384 -0.912,0.384 -1.584,1.008 -0.624,0.576 -1.008,1.392 -0.336,0.768 -0.384,1.632 l 9.504,0 z"
             style="font-style:normal;font-variant:normal;font-weight:800;font-stretch:normal;font-size:48px;font-family:Avenir;-inkscape-font-specification:'Avenir Ultra-Bold';fill:none;stroke:#ffffff;stroke-opacity:1"
             id="path4328" />
          <path
             d="m 796.03918,-14.26556 7.2,0 0,3.744 0.096,0 q 1.152,-2.16 2.736,-3.216 1.584,-1.104 3.984,-1.104 0.624,0 1.248,0.048 0.624,0.048 1.152,0.192 l 0,6.5759999 q -0.768,-0.24 -1.536,-0.336 -0.72,-0.144 -1.536,-0.144 -2.064,0 -3.264,0.576 -1.2,0.576 -1.872,1.632 -0.624,1.008 -0.816,2.448 -0.192,1.44 -0.192,3.16800002 l 0,9.74399998 -7.2,0 0,-23.3279999 z"
             style="font-style:normal;font-variant:normal;font-weight:800;font-stretch:normal;font-size:48px;font-family:Avenir;-inkscape-font-specification:'Avenir Ultra-Bold';fill:none;stroke:#ffffff;stroke-opacity:1"
             id="path4330" />
        </g>
        <g
           transform="rotate(-53.564)"
           style="font-style:normal;font-variant:normal;font-weight:normal;font-stretch:normal;font-size:32px;line-height:125%;font-family:Avenir;-inkscape-font-specification:Avenir;letter-spacing:0px;word-spacing:0px;fill:#ffffff;fill-opacity:1;stroke:none;stroke-width:1px;stroke-linecap:butt;stroke-linejoin:miter;stroke-opacity:1"
           aria-label="by Super Sach"
           id="text4215">
          <path
             d="m 659.53723,15.429626 1.125,-0.445312 0.46875,0 0,5.585937 q 0.19531,-0.335937 0.50781,-0.640625 0.32032,-0.304687 0.6875,-0.523437 0.375,-0.226563 0.77344,-0.359375 0.40625,-0.132813 0.77344,-0.132813 0.69531,0 1.28125,0.28125 0.58594,0.28125 1.00781,0.765625 0.42188,0.484375 0.65625,1.132813 0.24219,0.640625 0.24219,1.375 0,0.992187 -0.35156,1.859375 -0.34375,0.867187 -0.95313,1.515625 -0.60156,0.640625 -1.41406,1.015625 -0.8125,0.375 -1.73438,0.375 -0.89062,0 -1.67968,-0.234375 -0.78125,-0.234375 -1.39063,-0.710938 l 0,-10.859375 z m 1.59375,10.328125 q 0.14844,0.140625 0.32031,0.289063 0.17969,0.148437 0.39844,0.273437 0.21875,0.117188 0.48438,0.195313 0.27343,0.07031 0.60937,0.07031 0.55469,0 1.00781,-0.265625 0.45313,-0.273437 0.77344,-0.75 0.32813,-0.484375 0.5,-1.140625 0.17969,-0.664062 0.17969,-1.445312 0,-0.59375 -0.1875,-1.109375 -0.17969,-0.523438 -0.5,-0.90625 -0.3125,-0.390625 -0.74219,-0.609375 -0.42187,-0.226563 -0.90625,-0.226563 -0.27344,0 -0.5625,0.07813 -0.28125,0.07813 -0.53906,0.210938 -0.25781,0.132812 -0.47656,0.3125 -0.21875,0.171875 -0.35938,0.375 l 0,4.648437 z"
             style="font-style:normal;font-variant:normal;font-weight:normal;font-stretch:normal;font-size:16px;font-family:'Myanmar MN';-inkscape-font-specification:'Myanmar MN';fill:#ffffff;fill-opacity:1;stroke:none;stroke-opacity:1"
             id="path4333" />
          <path
             d="m 669.03723,28.953064 q 0.0937,0.03906 0.20313,0.101562 0.11718,0.0625 0.25,0.117188 0.14062,0.0625 0.30468,0.101562 0.16407,0.03906 0.36719,0.03906 0.25,0 0.46875,-0.140625 0.21875,-0.140625 0.39844,-0.351563 0.17969,-0.210937 0.32031,-0.460937 0.14063,-0.25 0.23438,-0.46875 l 0.53906,-1.203125 -4.08594,-7.625 1.80469,0 3.07812,5.78125 2.52344,-5.78125 0.85156,0 -4.08593,9.40625 q -0.25782,0.585937 -0.59375,1.015625 -0.32813,0.429687 -0.70313,0.710937 -0.375,0.28125 -0.77344,0.414063 -0.39843,0.140625 -0.77343,0.140625 -0.28125,0 -0.54688,-0.08594 -0.26562,-0.08594 -0.44531,-0.226562 l 0.66406,-1.484375 z"
             style="font-style:normal;font-variant:normal;font-weight:normal;font-stretch:normal;font-size:16px;font-family:'Myanmar MN';-inkscape-font-specification:'Myanmar MN';fill:#ffffff;fill-opacity:1;stroke:none;stroke-opacity:1"
             id="path4335" />
          <path
             d="m 684.52161,26.648376 q 0.38281,0 0.75781,-0.101562 0.375,-0.109375 0.67187,-0.3125 0.29688,-0.210938 0.47657,-0.507813 0.17968,-0.304687 0.17968,-0.703125 0,-0.476562 -0.25,-0.84375 -0.24218,-0.375 -0.64062,-0.679687 -0.39844,-0.3125 -0.91406,-0.585938 -0.50782,-0.273437 -1.03907,-0.546875 -0.53125,-0.273437 -1.04687,-0.570312 -0.50781,-0.304688 -0.90625,-0.671875 -0.39844,-0.375 -0.64844,-0.828125 -0.24219,-0.460938 -0.24219,-1.054688 0,-0.59375 0.21875,-1.101562 0.22657,-0.507813 0.65625,-0.875 0.42969,-0.375 1.05469,-0.585938 0.63281,-0.210937 1.44531,-0.210937 0.73438,0 1.3125,0.15625 0.57813,0.15625 1.01563,0.460937 0.4375,0.304688 0.74219,0.75 0.30468,0.445313 0.49218,1.03125 l -0.89062,0.40625 q -0.15625,-0.476562 -0.39844,-0.867187 -0.24219,-0.398438 -0.57812,-0.679688 -0.33594,-0.28125 -0.78125,-0.429687 -0.4375,-0.15625 -0.99219,-0.15625 -0.49219,0 -0.85938,0.140625 -0.36718,0.132812 -0.61718,0.359375 -0.24219,0.21875 -0.36719,0.5 -0.11719,0.273437 -0.11719,0.5625 0,0.40625 0.25,0.75 0.25,0.335937 0.66406,0.640625 0.41407,0.296875 0.9375,0.578125 0.53125,0.28125 1.07813,0.570312 0.54687,0.289063 1.07031,0.601563 0.53125,0.3125 0.94531,0.6875 0.41407,0.367187 0.66407,0.8125 0.25,0.4375 0.25,0.984375 0,0.617187 -0.23438,1.164062 -0.23437,0.539063 -0.70312,0.945313 -0.46875,0.398437 -1.16407,0.632812 -0.69531,0.234375 -1.61718,0.234375 -0.75,0 -1.33594,-0.164062 -0.58594,-0.164063 -1.03906,-0.476563 -0.44532,-0.3125 -0.76563,-0.757812 -0.32031,-0.453125 -0.52344,-1.03125 l 0.92969,-0.382813 q 0.16406,0.507813 0.4375,0.90625 0.28125,0.398438 0.64844,0.679688 0.36719,0.273437 0.8125,0.421875 0.45312,0.148437 0.96094,0.148437 z"
             style="font-style:normal;font-variant:normal;font-weight:normal;font-stretch:normal;font-size:16px;font-family:'Myanmar MN';-inkscape-font-specification:'Myanmar MN';fill:#ffffff;fill-opacity:1;stroke:none;stroke-opacity:1"
             id="path4337" />
          <path
             d="m 692.13098,19.062439 0,5.695312 q 0,0.296875 0.13281,0.5625 0.14063,0.265625 0.38282,0.460938 0.24218,0.195312 0.55468,0.3125 0.32032,0.109375 0.6875,0.109375 0.23438,0 0.5,-0.101563 0.27344,-0.101562 0.53125,-0.273437 0.25782,-0.179688 0.47657,-0.414063 0.22656,-0.242187 0.38281,-0.507812 l 0,-5.84375 1.57812,0 0,8 -1.57812,0 0,-1.5 q -0.21094,0.34375 -0.53125,0.648437 -0.3125,0.304688 -0.67969,0.53125 -0.36719,0.226563 -0.75781,0.359375 -0.39063,0.132813 -0.74219,0.132813 -0.52344,0 -0.98437,-0.195313 -0.46094,-0.195312 -0.80469,-0.53125 -0.34375,-0.335937 -0.54688,-0.789062 -0.19531,-0.453125 -0.19531,-0.960938 l 0,-5.695312 1.59375,0 z"
             style="font-style:normal;font-variant:normal;font-weight:normal;font-stretch:normal;font-size:16px;font-family:'Myanmar MN';-inkscape-font-specification:'Myanmar MN';fill:#ffffff;fill-opacity:1;stroke:none;stroke-opacity:1"
             id="path4339" />
          <path
             d="m 701.30286,18.914001 0.45312,0 0,1.796875 q 0.24219,-0.304687 0.53125,-0.625 0.29688,-0.320312 0.64844,-0.578125 0.35937,-0.265625 0.78906,-0.429687 0.42969,-0.164063 0.9375,-0.164063 0.71094,0 1.28906,0.296875 0.57813,0.296875 0.98438,0.804688 0.41406,0.507812 0.63281,1.195312 0.22656,0.679688 0.22656,1.453125 0,0.992188 -0.27343,1.835938 -0.27344,0.835937 -0.78125,1.445312 -0.50782,0.609375 -1.23438,0.953125 -0.72656,0.335938 -1.625,0.335938 -0.32812,0 -0.61719,-0.03906 -0.28125,-0.03125 -0.53906,-0.101562 -0.25,-0.07031 -0.49219,-0.179688 -0.23437,-0.109375 -0.47656,-0.265625 l 0,3.78125 -1.59375,0 0,-11.070312 1.14063,-0.445313 z m 0.45312,5.992188 q 0,0.359375 0.15625,0.679687 0.15625,0.3125 0.4375,0.554688 0.28125,0.234375 0.67188,0.375 0.39062,0.132812 0.85937,0.132812 0.44531,0 0.83594,-0.226562 0.39844,-0.226563 0.6875,-0.640625 0.29687,-0.421875 0.46094,-1 0.17187,-0.578125 0.17187,-1.28125 0,-0.882813 -0.15625,-1.539063 -0.15625,-0.664062 -0.4375,-1.101562 -0.27344,-0.4375 -0.65625,-0.65625 -0.375,-0.21875 -0.82812,-0.21875 -0.34375,0 -0.66407,0.109375 -0.3125,0.101562 -0.59375,0.28125 -0.28125,0.179687 -0.52343,0.414062 -0.23438,0.234375 -0.42188,0.492188 l 0,3.625 z"
             style="font-style:normal;font-variant:normal;font-weight:normal;font-stretch:normal;font-size:16px;font-family:'Myanmar MN';-inkscape-font-specification:'Myanmar MN';fill:#ffffff;fill-opacity:1;stroke:none;stroke-opacity:1"
             id="path4341" />
          <path
             d="m 713.45129,27.234314 q -0.8125,0 -1.53125,-0.304688 -0.71093,-0.304687 -1.24218,-0.828125 -0.53125,-0.523437 -0.84375,-1.226562 -0.30469,-0.710938 -0.30469,-1.507813 0,-0.960937 0.28125,-1.773437 0.28125,-0.820313 0.79687,-1.414063 0.51563,-0.59375 1.23438,-0.929687 0.72656,-0.335938 1.61719,-0.335938 0.78125,0 1.4375,0.28125 0.65625,0.273438 1.125,0.742188 0.47656,0.460937 0.73437,1.070312 0.26563,0.609375 0.26563,1.273438 l -5.96094,0 q 0,0.804687 0.20312,1.492187 0.21094,0.6875 0.58594,1.1875 0.375,0.5 0.89063,0.78125 0.51562,0.28125 1.13281,0.28125 0.51562,0 0.99219,-0.164062 0.47656,-0.171875 0.85937,-0.445313 0.39063,-0.273437 0.66406,-0.625 0.27344,-0.351562 0.38282,-0.726562 l 0.46093,0.203125 q -0.17187,0.617187 -0.55468,1.15625 -0.38282,0.539062 -0.89844,0.945312 -0.50781,0.398438 -1.10938,0.632813 -0.60156,0.234375 -1.21875,0.234375 z m 1.57813,-5.59375 q 0,-0.453125 -0.16406,-0.84375 -0.15625,-0.390625 -0.4375,-0.671875 -0.28125,-0.289063 -0.65625,-0.453125 -0.375,-0.164063 -0.80469,-0.164063 -0.35938,0 -0.6875,0.164063 -0.32813,0.15625 -0.58594,0.445312 -0.25781,0.28125 -0.42969,0.671875 -0.16406,0.390625 -0.19531,0.84375 l 3.96094,0.0078 z"
             style="font-style:normal;font-variant:normal;font-weight:normal;font-stretch:normal;font-size:16px;font-family:'Myanmar MN';-inkscape-font-specification:'Myanmar MN';fill:#ffffff;fill-opacity:1;stroke:none;stroke-opacity:1"
             id="path4343" />
          <path
             d="m 720.63879,18.914001 0.24219,0 0.21094,1.632813 q 0.1875,-0.359375 0.46875,-0.65625 0.28125,-0.296875 0.61719,-0.515625 0.34375,-0.21875 0.71875,-0.335938 0.38281,-0.125 0.77343,-0.125 0.35157,0 0.6875,0.09375 0.34375,0.09375 0.64063,0.296875 l -0.5,1.335938 q -0.15625,-0.171875 -0.32813,-0.273438 -0.17187,-0.109375 -0.35156,-0.164062 -0.17969,-0.0625 -0.36719,-0.07813 -0.1875,-0.01563 -0.375,-0.01563 -0.29687,0 -0.58593,0.08594 -0.28125,0.08594 -0.53907,0.257813 -0.25781,0.164062 -0.47656,0.429687 -0.21875,0.257813 -0.38281,0.609375 l 0,5.570313 -1.58594,0 0,-7.710938 1.13281,-0.4375 z"
             style="font-style:normal;font-variant:normal;font-weight:normal;font-stretch:normal;font-size:16px;font-family:'Myanmar MN';-inkscape-font-specification:'Myanmar MN';fill:#ffffff;fill-opacity:1;stroke:none;stroke-opacity:1"
             id="path4345" />
          <path
             d="m 733.08411,26.648376 q 0.38281,0 0.75781,-0.101562 0.375,-0.109375 0.67187,-0.3125 0.29688,-0.210938 0.47657,-0.507813 0.17968,-0.304687 0.17968,-0.703125 0,-0.476562 -0.25,-0.84375 -0.24218,-0.375 -0.64062,-0.679687 -0.39844,-0.3125 -0.91406,-0.585938 -0.50782,-0.273437 -1.03907,-0.546875 -0.53125,-0.273437 -1.04687,-0.570312 -0.50781,-0.304688 -0.90625,-0.671875 -0.39844,-0.375 -0.64844,-0.828125 -0.24219,-0.460938 -0.24219,-1.054688 0,-0.59375 0.21875,-1.101562 0.22657,-0.507813 0.65625,-0.875 0.42969,-0.375 1.05469,-0.585938 0.63281,-0.210937 1.44531,-0.210937 0.73438,0 1.3125,0.15625 0.57813,0.15625 1.01563,0.460937 0.4375,0.304688 0.74219,0.75 0.30468,0.445313 0.49218,1.03125 l -0.89062,0.40625 q -0.15625,-0.476562 -0.39844,-0.867187 -0.24219,-0.398438 -0.57812,-0.679688 -0.33594,-0.28125 -0.78125,-0.429687 -0.4375,-0.15625 -0.99219,-0.15625 -0.49219,0 -0.85938,0.140625 -0.36718,0.132812 -0.61718,0.359375 -0.24219,0.21875 -0.36719,0.5 -0.11719,0.273437 -0.11719,0.5625 0,0.40625 0.25,0.75 0.25,0.335937 0.66406,0.640625 0.41407,0.296875 0.9375,0.578125 0.53125,0.28125 1.07813,0.570312 0.54687,0.289063 1.07031,0.601563 0.53125,0.3125 0.94531,0.6875 0.41407,0.367187 0.66407,0.8125 0.25,0.4375 0.25,0.984375 0,0.617187 -0.23438,1.164062 -0.23437,0.539063 -0.70312,0.945313 -0.46875,0.398437 -1.16407,0.632812 -0.69531,0.234375 -1.61718,0.234375 -0.75,0 -1.33594,-0.164062 -0.58594,-0.164063 -1.03906,-0.476563 -0.44532,-0.3125 -0.76563,-0.757812 -0.32031,-0.453125 -0.52344,-1.03125 l 0.92969,-0.382813 q 0.16406,0.507813 0.4375,0.90625 0.28125,0.398438 0.64844,0.679688 0.36719,0.273437 0.8125,0.421875 0.45312,0.148437 0.96094,0.148437 z"
             style="font-style:normal;font-variant:normal;font-weight:normal;font-stretch:normal;font-size:16px;font-family:'Myanmar MN';-inkscape-font-specification:'Myanmar MN';fill:#ffffff;fill-opacity:1;stroke:none;stroke-opacity:1"
             id="path4347" />
          <path
             d="m 744.07629,27.062439 q -0.3125,-0.15625 -0.53125,-0.4375 -0.21093,-0.289063 -0.21093,-0.65625 -0.28125,0.210937 -0.55469,0.4375 -0.26563,0.226562 -0.58594,0.414062 -0.3125,0.179688 -0.70312,0.296875 -0.38282,0.117188 -0.89063,0.117188 -0.46875,0 -0.85156,-0.15625 -0.375,-0.148438 -0.64063,-0.414063 -0.25781,-0.265625 -0.40625,-0.632812 -0.14062,-0.367188 -0.14062,-0.789063 0,-0.515625 0.20312,-0.929687 0.20313,-0.414063 0.55469,-0.734375 0.35938,-0.328125 0.82813,-0.578125 0.46875,-0.257813 1,-0.453125 0.53125,-0.203125 1.09375,-0.359375 0.5625,-0.15625 1.09375,-0.289063 l 0,-0.5 q 0,-0.546875 -0.0781,-0.921875 -0.0781,-0.375 -0.24219,-0.601562 -0.16406,-0.234375 -0.42187,-0.328125 -0.25,-0.101563 -0.60156,-0.101563 -0.33594,0 -0.61719,0.132813 -0.28125,0.132812 -0.5,0.359375 -0.21094,0.21875 -0.35156,0.523437 -0.13282,0.296875 -0.17969,0.632813 l -1.45313,0 q 0.0625,-0.515625 0.35157,-0.921875 0.29687,-0.40625 0.74218,-0.679688 0.44532,-0.28125 1.00782,-0.429687 0.57031,-0.148438 1.17968,-0.148438 0.78125,0 1.3125,0.15625 0.53125,0.148438 0.85157,0.421875 0.32031,0.273438 0.45312,0.671875 0.14063,0.390625 0.14063,0.867188 l 0,4.9375 q 0,0.367187 0.21093,0.65625 0.21875,0.28125 0.53125,0.4375 l -1.59375,0 z m -0.74218,-4.65625 q -0.34375,0.109375 -0.71094,0.25 -0.36719,0.140625 -0.71875,0.320312 -0.35156,0.171875 -0.67188,0.375 -0.32031,0.203125 -0.5625,0.4375 -0.24218,0.234375 -0.38281,0.492188 -0.14062,0.257812 -0.14062,0.539062 0,0.296875 0.10937,0.5625 0.10938,0.257813 0.28906,0.460938 0.17969,0.195312 0.41407,0.3125 0.23437,0.109375 0.48437,0.109375 0.26563,0 0.50781,-0.07031 0.24219,-0.07031 0.46875,-0.1875 0.22657,-0.125 0.45313,-0.28125 0.22656,-0.15625 0.46094,-0.335937 l 0,-2.984375 z"
             style="font-style:normal;font-variant:normal;font-weight:normal;font-stretch:normal;font-size:16px;font-family:'Myanmar MN';-inkscape-font-specification:'Myanmar MN';fill:#ffffff;fill-opacity:1;stroke:none;stroke-opacity:1"
             id="path4349" />
          <path
             d="m 752.75598,21.312439 q -0.0859,-0.3125 -0.23437,-0.632813 -0.14844,-0.320312 -0.38282,-0.578125 -0.22656,-0.265625 -0.53906,-0.429687 -0.3125,-0.164063 -0.73437,-0.164063 -0.53907,0 -0.96875,0.21875 -0.42969,0.21875 -0.72657,0.59375 -0.29687,0.375 -0.45312,0.875 -0.15625,0.5 -0.15625,1.0625 0,0.765625 0.19531,1.453125 0.20313,0.679688 0.5625,1.195313 0.36719,0.515625 0.875,0.820312 0.51563,0.296875 1.14844,0.296875 0.55469,0 0.96094,-0.171875 0.41406,-0.179687 0.71093,-0.476562 0.30469,-0.296875 0.52344,-0.6875 0.21875,-0.398438 0.39063,-0.835938 l 0.47656,0.195313 q -0.20313,0.75 -0.54688,1.34375 -0.34375,0.59375 -0.8125,1.007812 -0.46093,0.40625 -1.04687,0.625 -0.57813,0.210938 -1.25781,0.210938 -0.78907,0 -1.47657,-0.304688 -0.6875,-0.3125 -1.19531,-0.851562 -0.50781,-0.539063 -0.80469,-1.257813 -0.29687,-0.71875 -0.29687,-1.539062 0,-0.601563 0.14844,-1.15625 0.14843,-0.5625 0.41406,-1.046875 0.27344,-0.484375 0.64844,-0.882813 0.38281,-0.398437 0.84375,-0.679687 0.46093,-0.289063 0.98437,-0.445313 0.53125,-0.15625 1.10156,-0.15625 0.47657,0 0.91407,0.109375 0.4375,0.109375 0.80468,0.3125 0.36719,0.195313 0.64844,0.492188 0.28125,0.289062 0.4375,0.648437 l -1.15625,0.835938 z"
             style="font-style:normal;font-variant:normal;font-weight:normal;font-stretch:normal;font-size:16px;font-family:'Myanmar MN';-inkscape-font-specification:'Myanmar MN';fill:#ffffff;fill-opacity:1;stroke:none;stroke-opacity:1"
             id="path4351" />
          <path
             d="m 758.25598,20.531189 q 0.71094,-0.8125 1.5,-1.210938 0.78906,-0.40625 1.59375,-0.40625 0.42188,0 0.78125,0.1875 0.36719,0.1875 0.64063,0.515625 0.27343,0.328125 0.42968,0.773438 0.15625,0.4375 0.15625,0.9375 l 0,5.734375 -1.58593,0 0,-5.460938 q 0,-0.796875 -0.35938,-1.203125 -0.35937,-0.414062 -0.92187,-0.414062 -0.25,0 -0.53125,0.08594 -0.28125,0.08594 -0.57032,0.242188 -0.28906,0.148437 -0.57812,0.359375 -0.28906,0.210937 -0.55469,0.46875 l 0,5.921875 -1.59375,0 0,-11.625 1.14063,-0.453125 0.45312,0 0,5.546875 z"
             style="font-style:normal;font-variant:normal;font-weight:normal;font-stretch:normal;font-size:16px;font-family:'Myanmar MN';-inkscape-font-specification:'Myanmar MN';fill:#ffffff;fill-opacity:1;stroke:none;stroke-opacity:1"
             id="path4353" />
        </g>
      </g>
    </g>
  </g>
</svg>
