<?xml version="1.0" encoding="UTF-8" standalone="no"?>
<svg
   xmlns:dc="http://purl.org/dc/elements/1.1/"
   xmlns:cc="http://creativecommons.org/ns#"
   xmlns:rdf="http://www.w3.org/1999/02/22-rdf-syntax-ns#"
   xmlns:svg="http://www.w3.org/2000/svg"
   xmlns="http://www.w3.org/2000/svg"
   xmlns:sodipodi="http://sodipodi.sourceforge.net/DTD/sodipodi-0.dtd"
   xmlns:inkscape="http://www.inkscape.org/namespaces/inkscape"
   inkscape:version="1.0rc1 (09960d6, 2020-04-09)"
   sodipodi:docname="str.svg"
   id="svg856"
   version="1.1"
   viewBox="0 0 210 297"
   height="297mm"
   width="210mm">
  <defs
     id="defs850" />
  <sodipodi:namedview
     inkscape:window-maximized="0"
     inkscape:window-y="23"
     inkscape:window-x="0"
     inkscape:window-height="1187"
     inkscape:window-width="2509"
     showgrid="false"
     inkscape:document-rotation="0"
     inkscape:current-layer="layer1"
     inkscape:document-units="mm"
     inkscape:cy="226.93979"
     inkscape:cx="112.06444"
     inkscape:zoom="1.979899"
     inkscape:pageshadow="2"
     inkscape:pageopacity="0.0"
     borderopacity="1.0"
     bordercolor="#666666"
     pagecolor="#ffffff"
     id="base" />
  <metadata
     id="metadata853">
    <rdf:RDF>
      <cc:Work
         rdf:about="">
        <dc:format>image/svg+xml</dc:format>
        <dc:type
           rdf:resource="http://purl.org/dc/dcmitype/StillImage" />
        <dc:title></dc:title>
      </cc:Work>
    </rdf:RDF>
  </metadata>
  <g
     id="layer1"
     inkscape:groupmode="layer"
     inkscape:label="Layer 1">
    <path
       inkscape:connector-curvature="0"
       id="path1476"
       d="m 39.309524,30.238094 c -3.779764,-0.755952 89.958336,3.023811 89.958336,3.023811 l -3.77977,72.571425 -86.934518,-9.071425 z"
       style="fill:#800000;stroke:#000000;stroke-width:0.26458300000000001px;stroke-linecap:butt;stroke-linejoin:miter;stroke-opacity:1" />
    <path
       d="m 75.548718,53.035296 -0.257282,1.28402 0.02836,0.41351 -0.403285,0.36472 0.123101,0.20276 0.277403,-0.0909 0.03785,0.26242 -0.169247,0.7478 0.0473,0.32803 -0.288252,0.26358 -0.07724,0.58024 -0.328693,-0.82243 -0.125881,0.27379 0.141968,0.76736 -0.159727,0.38003 0.346298,0.75852 q 0.167702,0.57396 0.179849,0.81309 l -0.158337,0.14174 -0.114904,-0.76567 -0.249145,1.15452 0.332796,0.54099 -0.180037,0.48709 -0.07983,-0.0267 -0.401962,0.55982 0.04044,1.08604 -0.1556,-0.1181 -0.03245,0.0846 0.192021,0.83552 -0.355971,0.69274 q -0.092,-0.0492 -0.365285,-0.45634 l -0.216526,0.20308 -0.339544,-0.64975 0.07036,-0.039 0.224604,0.1008 0.120457,-0.18747 -0.0257,-0.23998 0.154294,-0.29368 -0.136637,-0.20361 -0.07036,0.039 -0.157007,0.33685 -0.398969,-1.43361 0.06096,-0.32122 0.0072,-3.14166 0.319446,-0.76004 -0.275927,-0.79745 0.331531,-0.0875 0.172027,-1.22438 -0.106681,-1.54526 0.199117,-1.43936 -0.192088,-0.40213 -0.069,0.0173 -0.136544,-0.8537 0.280087,0.0826 -0.205463,-1.48646 0.110988,-0.25305 -0.224536,-0.53419 0.06374,-1.01447 0.152938,-0.27211 -0.06638,0.40756 0.05272,0.24168 -0.04199,0.45243 0.517021,-0.87765 0.189376,0.4453 0.515571,-0.20597 0.215111,0.25188 0.238167,-0.11505 0.342323,0.17319 0.19748,0.53249 -0.09746,0.25391 0.254348,0.27602 -0.0434,0.6907 -0.04062,-0.003 -0.0366,0.1494 0.151403,1.04965 -0.411456,0.71092 0.108224,0.2235 0.343731,-0.28178 0.01351,8.47e-4 0.0054,0.13036 -0.112396,0.70804 z m -0.834275,-4.23469 0.0095,-0.15108 -0.136638,-0.20361 -0.08933,0.1244 0.16099,0.24848 z m -0.507876,3.11021 -0.280023,-0.51599 -0.262646,0.93697 0.251763,-0.54761 z m 1.241944,1.63826 -0.0581,-0.58874 -0.227292,-0.27431 -0.101529,0.31866 0.246211,0.40553 z m -2.001293,0.0693 0.01356,-0.21584 -0.142064,-0.11725 -0.01351,-8.46e-4 -0.02029,0.107049 0.09198,0.26581 z m 1.397784,0.0228 -0.21924,0.246271 -0.136637,-0.203621 -0.0217,0.34535 0.06762,0.220951 z m -1.905872,4.60427 0.01763,-0.2806 -0.04062,-0.003 -0.01763,0.2806 z m 1.01299,3.55248 q 0.01623,-0.0424 -0.09059,-0.50409 l -0.06774,0.42913 0.01882,0.7813 z m -0.853877,-9.111619 -0.167711,-0.57395 0.159693,-0.16333 z m 1.848689,7.33219 -0.07447,0.32038 -0.02027,-0.32633 z m -0.702924,4.48482 -0.163695,-0.20531 0.06227,-0.1261 0.112285,0.15873 z"
       style="font-style:normal;font-variant:normal;font-weight:normal;font-stretch:normal;font-size:17.53460000000000107px;line-height:1.25;font-family:EraserDust;-inkscape-font-specification:EraserDust;fill:#ff00ff;fill-opacity:1;stroke:none;stroke-width:0.438367;filter:url(#filter903)"
       id="path859"
       inkscape:connector-curvature="0" />
  </g>
</svg>
