<?xml version="1.0" encoding="UTF-8"?>
<svg width="41.143mm" height="28.972mm" version="1.1" viewBox="0 0 41.143 28.972" xmlns="http://www.w3.org/2000/svg">
 <g transform="translate(-57.233 -142.81)">
  <g filter="url(#filter903)">
   <path d="m60.54 144.79h33.602l-0.39688 22.49-33.205 1.1906z" fill="#800000" stroke="#fff" stroke-width=".26458px"/>
   <g fill="#fff">
    <path d="m83.524 156.66-2.4655 0.91163-0.74199 0.39038-0.8547-0.0285-0.31277 0.28651 0.29577 0.16111-0.46159 0.26501-1.445 0.51403-0.57698 0.3313-0.61622-0.0178-1.0958 0.44596 1.3484-1.0136-0.55893 0.13256-1.3351 0.80228-0.76876 0.19704-1.2235 0.97236q-0.96986 0.65363-1.4009 0.87569l-0.33292-0.0125 1.3447-0.77721-2.2251 0.80417-0.83245 0.7682-0.97382 0.27405 0.01141-0.0931-1.2104 0.14517-1.9646 0.99572 0.14299-0.23994-0.16978 0.0466-1.4362 0.90614-1.4317 0.30276q0.04669-0.12355 0.66267-0.72163l-0.47218-9e-3 1.028-0.87028 0.10398 0.0269-0.07906 0.28469 0.3987-0.0609 0.4263-0.2346 0.60854-0.1254 0.30799-0.29904-0.10399-0.0268-0.68865 0.16122 2.4318-1.6153 0.61517-0.23105 5.7414-2.7723 1.5375-0.39408 1.3275-0.94551 0.31487 0.21124 2.3166-0.9331 2.7724-1.4595 2.722-1.0997 0.64463-0.52289-0.06393-0.0448 1.4954-0.87392-0.01991 0.31692 2.6188-1.4936 0.5141-0.12718 0.87064-0.66794 1.8827-0.84173 0.56848-0.1075-0.7754 0.30269-0.41675 0.25966-0.84596 0.36358 1.8447-0.32608-0.72474 0.55871 0.61728 0.2667-0.35946 0.41005 0.3215 0.1056-0.15626 0.45121-0.88019 0.64288-0.50932 0.13972-0.38519 0.46556-1.2818 0.57309-0.01432-0.0376-0.28995 0.10029-1.8463 1.0602-1.4908 0.27053-0.35759 0.29189 0.67538 0.05 0.0048 0.0125-0.23557 0.11997-1.3457 0.52835zm7.3442-4.4716 0.2804-0.12536 0.30799-0.29904-0.26899 0.0323-0.37856 0.35992zm-5.918 2.3086 0.81149-0.70016-1.8341 0.60001 1.1179-0.26511zm-2.4114 2.5302 1.0481-0.57128 0.39474-0.44049-0.6295 0.19344-0.62553 0.57301zm-1.0624-1.6811 0.40056-0.1791 0.14776-0.2274-0.0048-0.0125-0.20505 0.077-0.44248 0.31517zm0.61194 1.2371-0.5523 0.0269 0.30799-0.29904-0.64091 0.28655-0.37192 0.25428zm-9.3005 2.4128 0.52074-0.23282-0.01432-0.0376-0.52074 0.23282zm-6.0146 4.0238q0.08488-0.0233 0.87833-0.5247l-0.81545 0.3206-1.4182 0.70739zm16.242-8.802 0.96986-0.65363 0.37297-5e-3zm-12.527 8.0943-0.61994 0.21853 0.58653-0.30622zm-8.5198 3.3545 0.29844-0.3241 0.25943-0.0574-0.23743 0.23816z"/>
    <path d="m67.163 153.85 0.17625 1.2976-0.05423 0.41091 0.37962 0.3893-0.13558 0.19464-0.27116-0.10811-0.05423 0.25952 0.12202 0.75695-0.06779 0.3244 0.27116 0.28116 0.04067 0.58393 0.37962-0.80019 0.10846 0.28114-0.18981 0.75695 0.13558 0.3893-0.39318 0.73531q-0.20337 0.5623-0.23048 0.8002l0.14914 0.1514 0.1627-0.75695 0.17625 1.1679-0.36606 0.51904 0.14914 0.49743 0.08135-0.0216 0.36606 0.58394-0.10846 1.0814 0.1627-0.10811 0.02712 0.0865-0.24404 0.82184 0.31183 0.71369q0.0949-0.0433 0.39318-0.43254l0.20337 0.21627 0.37962-0.62718-0.06779-0.0432-0.23048 0.0865-0.10846-0.19464 0.04067-0.2379-0.13558-0.30278 0.14914-0.19464 0.06779 0.0432 0.13558 0.34603 0.48808-1.4058-0.04067-0.32441 0.18981-3.1359-0.27116-0.77857 0.32539-0.77859-0.32539-0.10811-0.09491-1.2328 0.20337-1.5355-0.10846-1.449 0.21693-0.38929 0.06779 0.0216 0.18981-0.84347-0.28472 0.0649 0.29827-1.4706-0.0949-0.25952 0.2576-0.51906v-1.0165l-0.13558-0.28116 0.04067 0.41092-0.06779 0.2379 0.01355 0.45417-0.46097-0.90835-0.21693 0.43255-0.50164-0.2379-0.23048 0.2379-0.23048-0.12977-0.35251 0.1514-0.23048 0.51905 0.08135 0.25952-0.27116 0.25952v0.69208h0.04067l0.02712 0.15139-0.21693 1.0381 0.36606 0.73532-0.12202 0.21627-0.32539-0.30278h-0.01355l-0.01356 0.12976 0.06779 0.7137zm1.0982-4.174v-0.15138l0.14914-0.19465 0.08135 0.12977-0.17625 0.2379zm0.31183 3.1359 0.31183-0.49743 0.20337 0.95159-0.21693-0.5623zm-1.3422 1.5572 0.0949-0.58393 0.24404-0.25952 0.08135 0.3244-0.27116 0.38929zm1.993 0.19464v-0.21626l0.14914-0.10811h0.01355l0.01356 0.10811-0.10846 0.25952zm-1.3965-0.0649 0.20337 0.25954 0.14914-0.19465v0.34603l-0.08135 0.21628zm1.6134 4.7147v-0.28115h0.04067v0.28115zm-1.2338 3.482q-0.01355-0.0433 0.12202-0.49743l0.04067 0.43255-0.06779 0.77858zm1.4236-9.0401 0.20337-0.5623-0.14914-0.17302zm-2.3048 7.2018 0.05423 0.32441 0.04067-0.32441zm0.4203 4.5201 0.17625-0.19464-0.05423-0.12978-0.12202 0.1514z"/>
    <path d="m76.483 153.76-0.25728 1.284 0.02836 0.41351-0.40328 0.36472 0.1231 0.20276 0.2774-0.0909 0.03785 0.26242-0.16925 0.7478 0.0473 0.32803-0.28825 0.26358-0.07724 0.58024-0.32869-0.82243-0.12588 0.27379 0.14197 0.76736-0.15973 0.38003 0.3463 0.75852q0.1677 0.57396 0.17985 0.81309l-0.15834 0.14174-0.1149-0.76567-0.24914 1.1545 0.3328 0.54099-0.18004 0.48709-0.07983-0.0267-0.40196 0.55982 0.04044 1.086-0.1556-0.1181-0.03245 0.0846 0.19202 0.83552-0.35597 0.69274q-0.092-0.0492-0.36528-0.45634l-0.21653 0.20308-0.33954-0.64975 0.07036-0.039 0.2246 0.1008 0.12046-0.18747-0.0257-0.23998 0.15429-0.29368-0.13664-0.20361-0.07036 0.039-0.15701 0.33685-0.39897-1.4336 0.06096-0.32122 0.0072-3.1417 0.31945-0.76004-0.27593-0.79745 0.33153-0.0875 0.17203-1.2244-0.10668-1.5453 0.19912-1.4394-0.19209-0.40213-0.069 0.0173-0.13654-0.8537 0.28009 0.0826-0.20546-1.4865 0.11099-0.25305-0.22454-0.53419 0.06374-1.0145 0.15294-0.27211-0.06638 0.40756 0.05272 0.24168-0.04199 0.45243 0.51702-0.87765 0.18938 0.4453 0.51557-0.20597 0.21511 0.25188 0.23817-0.11505 0.34232 0.17319 0.19748 0.53249-0.09746 0.25391 0.25435 0.27602-0.0434 0.6907-0.04062-3e-3 -0.0366 0.1494 0.1514 1.0496-0.41146 0.71092 0.10822 0.2235 0.34373-0.28178 0.01351 8.5e-4 0.0054 0.13036-0.1124 0.70804zm-0.83428-4.2347 0.0095-0.15108-0.13664-0.20361-0.08933 0.1244 0.16099 0.24848zm-0.50788 3.1102-0.28002-0.51599-0.26265 0.93697 0.25176-0.54761zm1.2419 1.6383-0.0581-0.58874-0.22729-0.27431-0.10153 0.31866 0.24621 0.40553zm-2.0013 0.0693 0.01356-0.21584-0.14206-0.11725-0.01351-8.5e-4 -0.02029 0.10705 0.09198 0.26581zm1.3978 0.0228-0.21924 0.24627-0.13664-0.20362-0.0217 0.34535 0.06762 0.22095zm-1.9059 4.6043 0.01763-0.2806-0.04062-3e-3 -0.01763 0.2806zm1.013 3.5525q0.01623-0.0424-0.09059-0.50409l-0.06774 0.42913 0.01882 0.7813zm-0.85388-9.1116-0.16771-0.57395 0.15969-0.16333zm1.8487 7.3322-0.07447 0.32038-0.02027-0.32633zm-0.70292 4.4848-0.1637-0.20531 0.06227-0.1261 0.11228 0.15873z"/>
    <path d="m82.156 154.61-0.06935 1.3998 0.08776 0.43483-0.34659 0.44493 0.15114 0.19756 0.2615-0.13623 0.07535 0.2731-0.05961 0.818 0.09418 0.34137-0.24731 0.3211 0.0073 0.62694-0.44411-0.82582-0.0851 0.30865 0.25131 0.79413-0.10327 0.42626 0.45231 0.75546q0.24887 0.58516 0.29541 0.83723l-0.13629 0.17314-0.22427-0.7962-0.07999 1.2611 0.40754 0.52649-0.10792 0.54281-0.08288-0.0169-0.31712 0.65183 0.1968 1.1469-0.17108-0.10304-0.01995 0.0945 0.3107 0.8593-0.25241 0.7863q-0.09817-0.0389-0.42749-0.43199l-0.18504 0.24659-0.42993-0.64097 0.06405-0.0513 0.2369 0.0748 0.09219-0.21623-0.06005-0.25103 0.11036-0.33384-0.16466-0.19653-0.06404 0.0515-0.10681 0.38003-0.6019-1.4644 0.01396-0.34967-0.44634-3.3356 0.20654-0.85251-0.38826-0.80685 0.31557-0.14039-0.0064-1.3242-0.32866-1.6248-0.01065-1.5563-0.24821-0.39929-0.06582 0.0283-0.2584-0.88654 0.2892 0.0476-0.41797-1.5483 0.07335-0.28451-0.2994-0.53481-0.08333-1.0859 0.11213-0.31074-0.0069 0.44211 0.08709 0.24896 0.02372 0.48623 0.38515-1.0057 0.25175 0.44548 0.48067-0.29252 0.24931 0.23651 0.21917-0.15627 0.36388 0.13477 0.27236 0.53686-0.05983 0.28348 0.29164 0.25651 0.05674 0.73934-0.04055 3e-3 -0.01462 0.16381 0.3014 1.0924-0.30471 0.81355 0.13939 0.22171 0.29961-0.34836 0.01351-1e-3 0.02415 0.13759-0.0091 0.76764zm-1.4372-4.3751-0.01241-0.16174-0.16466-0.19652-0.07047 0.14485 0.19524 0.24066zm-0.05383 3.374-0.3517-0.50754-0.12476 1.0322 0.17019-0.6173zm1.466 1.5608-0.1425-0.61655-0.2646-0.25859-0.05451 0.35279 0.30228 0.39514zm-1.9712 0.36044-0.01773-0.23105-0.15756-0.10408-0.01351 1e-3 -0.0047 0.11652 0.12942 0.26896zm1.387-0.1762-0.1815 0.29282-0.16466-0.19654 0.02837 0.36967 0.09884 0.22483zm-1.2221 5.1602-0.02305-0.30036-0.04055 3e-3 0.02305 0.30036zm1.5156 3.6254q0.01-0.0472-0.16244-0.52207l-0.0051 0.46521 0.13142 0.82657zm-2.1605-9.5487-0.24887-0.58514 0.13452-0.19625zm2.8885 7.5174-0.02748 0.35071-0.06715-0.34345zm-0.0485 4.861-0.1917-0.19446 0.04344-0.14278 0.13408 0.1524z"/>
    <path d="m88.426 160.35-0.13684-1.2976 0.04207-0.41092-0.29474-0.38929 0.10526-0.19463 0.21053 0.10807 0.04207-0.25952-0.09474-0.75696 0.0526-0.32441-0.21053-0.28114-0.0316-0.58395-0.29474 0.80021-0.08421-0.28115 0.14736-0.75695-0.10526-0.38929 0.30527-0.73533q0.1579-0.56229 0.17895-0.80021l-0.11579-0.15137-0.12632 0.75695-0.13684-1.1679 0.28422-0.51906-0.11579-0.49742-0.06314 0.0216-0.28422-0.58394 0.08421-1.0814-0.12632 0.10807-0.02107-0.0864 0.18948-0.82184-0.24211-0.71369q-0.07368 0.0433-0.30527 0.43255l-0.15789-0.21628-0.29474 0.62718 0.0526 0.0433 0.17895-0.0864 0.08421 0.19464-0.0316 0.23789 0.10526 0.30279-0.11579 0.19464-0.0526-0.0433-0.10526-0.34604-0.37895 1.4058 0.0316 0.32442-0.14737 3.1359 0.21052 0.77858-0.25263 0.77856 0.25263 0.10808 0.07369 1.2328-0.15789 1.5355 0.08421 1.449-0.16842 0.38929-0.0526-0.0216-0.14737 0.84345 0.22106-0.0649-0.23158 1.4706 0.07368 0.25953-0.2 0.51905v1.0165l0.10526 0.28116-0.0316-0.41092 0.05267-0.2379-0.01053-0.45418 0.3579 0.90835 0.16842-0.43254 0.38948 0.2379 0.17895-0.2379 0.17895 0.12972 0.27369-0.15139 0.17895-0.51905-0.06314-0.25953 0.21052-0.25953v-0.69206h-0.0316l-0.02107-0.15139 0.16842-1.0381-0.28421-0.73532 0.09473-0.21627 0.25264 0.30277h0.01053l0.01054-0.12972-0.0526-0.71369zm-0.85264 4.174v0.15139l-0.11579 0.19464-0.06314-0.12972 0.13684-0.2379zm-0.24211-3.1359-0.24211 0.49743-0.15789-0.95159 0.16842 0.5623zm1.0421-1.5572-0.07368 0.58394-0.18948 0.25953-0.06314-0.32442 0.21052-0.38929zm-1.5474-0.19464v0.21627l-0.11579 0.10808h-0.01054l-0.01053-0.10808 0.08421-0.25953zm1.0842 0.0649-0.15789-0.25952-0.1158 0.19464v-0.34604l0.06314-0.21626zm-1.2526-4.7147v0.28115h-0.0316v-0.28115zm0.95791-3.4819q0.01053 0.0433-0.09474 0.49742l-0.0316-0.43255 0.0526-0.77858zm-1.1053 9.0402-0.1579 0.5623 0.1158 0.17302zm1.7895-7.2018-0.04214-0.3244-0.0316 0.3244zm-0.32632-4.5201-0.13684 0.19464 0.04207 0.12972 0.09474-0.15138z"/>
   </g>
   <path d="m62.657 146.25h33.602l-0.39688 22.49-33.205 1.1906z" fill="none" stroke="#f0f" stroke-width=".26458px"/>
  </g>
 </g>
</svg>
