<?xml version="1.0" encoding="UTF-8" standalone="no"?>
<svg
   xmlns:dc="http://purl.org/dc/elements/1.1/"
   xmlns:cc="http://creativecommons.org/ns#"
   xmlns:rdf="http://www.w3.org/1999/02/22-rdf-syntax-ns#"
   xmlns:svg="http://www.w3.org/2000/svg"
   xmlns="http://www.w3.org/2000/svg"
   xmlns:sodipodi="http://sodipodi.sourceforge.net/DTD/sodipodi-0.dtd"
   xmlns:inkscape="http://www.inkscape.org/namespaces/inkscape"
   inkscape:export-ydpi="96"
   inkscape:export-xdpi="96"
   inkscape:export-filename="/Users/tobias/git/quoifoer/src/img/lines0.png"
   width="33.301785mm"
   height="21.234554mm"
   viewBox="0 0 33.301785 21.234554"
   id="svg7326"
   version="1.1"
   inkscape:version="1.0rc1 (09960d6, 2020-04-09)"
   sodipodi:docname="strich.svg">
  <defs
     id="defs7328">
    <filter
       x="-0.30000001"
       inkscape:label="filter0"
       id="filter962"
       style="color-interpolation-filters:sRGB">
      <feBlend
         result="result2"
         id="feBlend956"
         in2="SourceGraphic"
         mode="normal" />
      <feTurbulence
         seed="339"
         numOctaves="1"
         baseFrequency="0.060999999999999985"
         type="fractalNoise"
         result="result1"
         id="feTurbulence958" />
      <feDisplacementMap
         in="result2"
         yChannelSelector="G"
         xChannelSelector="B"
         scale="2.4"
         id="feDisplacementMap960"
         in2="result1" />
    </filter>
  </defs>
  <sodipodi:namedview
     inkscape:snap-global="false"
     inkscape:document-rotation="0"
     inkscape:snap-page="true"
     inkscape:window-maximized="0"
     inkscape:window-y="23"
     inkscape:window-x="1081"
     inkscape:window-height="1329"
     inkscape:window-width="1463"
     fit-margin-bottom="0"
     fit-margin-right="0"
     fit-margin-left="0"
     fit-margin-top="0"
     showgrid="false"
     inkscape:current-layer="layer2"
     inkscape:document-units="mm"
     inkscape:cy="34.008576"
     inkscape:cx="67.344627"
     inkscape:zoom="2.8284271"
     inkscape:pageshadow="2"
     inkscape:pageopacity="0"
     borderopacity="1.0"
     bordercolor="#666666"
     pagecolor="#000000"
     id="base" />
  <metadata
     id="metadata7331">
    <rdf:RDF>
      <cc:Work
         rdf:about="">
        <dc:format>image/svg+xml</dc:format>
        <dc:type
           rdf:resource="http://purl.org/dc/dcmitype/StillImage" />
        <dc:title></dc:title>
      </cc:Work>
    </rdf:RDF>
  </metadata>
  <g
     transform="translate(-60.506832,-146.83156)"
     id="layer1"
     inkscape:groupmode="layer"
     inkscape:label="main" />
  <g
     transform="translate(-3.2740521,-4.0223982)"
     style="display:none"
     inkscape:label="line1"
     id="layer2"
     inkscape:groupmode="layer">
    <path
       d="m 67.162725,153.84879 0.176253,1.29763 -0.05423,0.41091 0.379622,0.3893 -0.13558,0.19464 -0.271157,-0.10811 -0.05423,0.25952 0.122022,0.75695 -0.06779,0.3244 0.271158,0.28116 0.04067,0.58393 0.379622,-0.80019 0.108463,0.28114 -0.189811,0.75695 0.13558,0.3893 -0.39318,0.73531 q -0.203369,0.5623 -0.230484,0.8002 l 0.149136,0.1514 0.162695,-0.75695 0.176253,1.16787 -0.366064,0.51904 0.149137,0.49743 0.08135,-0.0216 0.366064,0.58394 -0.108464,1.08135 0.162696,-0.10811 0.02712,0.0865 -0.244043,0.82184 0.311832,0.71369 q 0.0949,-0.0433 0.393179,-0.43254 l 0.203369,0.21627 0.379622,-0.62718 -0.06779,-0.0432 -0.230484,0.0865 -0.108463,-0.19464 0.04067,-0.2379 -0.135579,-0.30278 0.149137,-0.19464 0.06779,0.0432 0.13558,0.34603 0.488084,-1.40576 -0.04067,-0.32441 0.189811,-3.13593 -0.271158,-0.77857 0.32539,-0.77859 -0.32539,-0.10811 -0.09491,-1.23275 0.20337,-1.53553 -0.108464,-1.44902 0.216927,-0.38929 0.06779,0.0216 0.189811,-0.84347 -0.284717,0.0649 0.298274,-1.47065 -0.0949,-0.25952 0.2576,-0.51906 v -1.01647 l -0.135578,-0.28116 0.04067,0.41092 -0.06779,0.2379 0.01355,0.45417 -0.460969,-0.90835 -0.216927,0.43255 -0.501643,-0.2379 -0.230485,0.2379 -0.230483,-0.12977 -0.352507,0.1514 -0.230484,0.51905 0.08135,0.25952 -0.271158,0.25952 v 0.69208 h 0.04067 l 0.02712,0.15139 -0.216927,1.0381 0.366064,0.73532 -0.122022,0.21627 -0.325389,-0.30278 h -0.01355 l -0.01356,0.12976 0.06779,0.7137 z m 1.098191,-4.17404 v -0.15138 l 0.149137,-0.19465 0.08135,0.12977 -0.176252,0.2379 z m 0.311832,3.13594 0.311832,-0.49743 0.203369,0.95159 -0.216927,-0.5623 z m -1.342233,1.55715 0.0949,-0.58393 0.244042,-0.25952 0.08135,0.3244 -0.271158,0.38929 z m 1.993013,0.19464 v -0.21626 l 0.149137,-0.10811 h 0.01355 l 0.01356,0.10811 -0.108464,0.25952 z m -1.396465,-0.0649 0.203369,0.25954 0.149137,-0.19465 v 0.34603 l -0.08135,0.21628 z m 1.613392,4.71472 v -0.28115 h 0.04067 v 0.28115 z m -1.233771,3.48197 q -0.01355,-0.0433 0.122022,-0.49743 l 0.04067,0.43255 -0.06779,0.77858 z m 1.423581,-9.04014 0.203369,-0.5623 -0.149137,-0.17302 z m -2.304845,7.20183 0.05423,0.32441 0.04067,-0.32441 z m 0.420296,4.52008 0.176252,-0.19464 -0.05423,-0.12978 -0.12202,0.1514 z"
       style="font-style:normal;font-variant:normal;font-weight:normal;font-stretch:normal;font-size:17.5346px;line-height:1.25;font-family:EraserDust;-inkscape-font-specification:EraserDust;fill:#ffffff;fill-opacity:1;stroke:none;stroke-width:0.438366"
       id="path856"
       inkscape:connector-curvature="0"
       transform="translate(-57.23278,-142.80916)" />
  </g>
  <g
     transform="translate(-3.2740521,-4.0223982)"
     style="display:none"
     inkscape:label="line2"
     id="layer3"
     inkscape:groupmode="layer">
    <path
       d="m 76.482649,153.75945 -0.257282,1.28402 0.02836,0.41351 -0.403285,0.36472 0.123101,0.20276 0.277403,-0.0909 0.03785,0.26242 -0.169247,0.7478 0.0473,0.32803 -0.288252,0.26358 -0.07724,0.58024 -0.328693,-0.82243 -0.125881,0.27379 0.141968,0.76736 -0.159727,0.38003 0.346298,0.75852 q 0.167702,0.57396 0.179849,0.81309 l -0.158337,0.14174 -0.114904,-0.76567 -0.249145,1.15452 0.332796,0.54099 -0.180037,0.48709 -0.07983,-0.0267 -0.401962,0.55982 0.04044,1.08604 -0.1556,-0.1181 -0.03245,0.0846 0.192021,0.83552 -0.355971,0.69274 q -0.092,-0.0492 -0.365285,-0.45634 l -0.216526,0.20308 -0.339544,-0.64975 0.07036,-0.039 0.224604,0.1008 0.120457,-0.18747 -0.0257,-0.23998 0.154294,-0.29368 -0.136637,-0.20361 -0.07036,0.039 -0.157007,0.33685 -0.398969,-1.43361 0.06096,-0.32122 0.0072,-3.14166 0.319446,-0.76004 -0.275927,-0.79745 0.331531,-0.0875 0.172027,-1.22438 -0.106681,-1.54526 0.199117,-1.43936 -0.192088,-0.40213 -0.069,0.0173 -0.136544,-0.8537 0.280087,0.0826 -0.205463,-1.48646 0.110988,-0.25305 -0.224536,-0.53419 0.06374,-1.01447 0.152938,-0.27211 -0.06638,0.40756 0.05272,0.24168 -0.04199,0.45243 0.517021,-0.87765 0.189376,0.4453 0.515571,-0.20597 0.215111,0.25188 0.238167,-0.11505 0.342323,0.17319 0.19748,0.53249 -0.09746,0.25391 0.254348,0.27602 -0.0434,0.6907 -0.04062,-0.003 -0.0366,0.1494 0.151403,1.04965 -0.411456,0.71092 0.108224,0.2235 0.343731,-0.28178 0.01351,8.5e-4 0.0054,0.13036 -0.112397,0.70804 z m -0.834275,-4.23469 0.0095,-0.15108 -0.136638,-0.20361 -0.08933,0.1244 0.16099,0.24848 z m -0.507876,3.11021 -0.280023,-0.51599 -0.262646,0.93697 0.251763,-0.54761 z m 1.241944,1.63826 -0.0581,-0.58874 -0.227292,-0.27431 -0.101529,0.31866 0.246211,0.40553 z m -2.001293,0.0693 0.01356,-0.21584 -0.142064,-0.11725 -0.01351,-8.5e-4 -0.02029,0.10705 0.09198,0.26581 z m 1.397784,0.0228 -0.21924,0.24627 -0.136637,-0.20362 -0.0217,0.34535 0.06762,0.22095 z m -1.905872,4.60427 0.01763,-0.2806 -0.04062,-0.003 -0.01763,0.2806 z m 1.01299,3.55248 q 0.01623,-0.0424 -0.09059,-0.50409 l -0.06774,0.42913 0.01882,0.7813 z m -0.853877,-9.11162 -0.167711,-0.57395 0.159693,-0.16333 z m 1.848689,7.33219 -0.07447,0.32038 -0.02027,-0.32633 z m -0.702924,4.48482 -0.163695,-0.20531 0.06227,-0.1261 0.112285,0.15873 z"
       style="font-style:normal;font-variant:normal;font-weight:normal;font-stretch:normal;font-size:17.5346px;line-height:1.25;font-family:EraserDust;-inkscape-font-specification:EraserDust;fill:#ffffff;fill-opacity:1;stroke:none;stroke-width:0.438366"
       id="path859"
       inkscape:connector-curvature="0"
       transform="translate(-57.23278,-142.80916)" />
  </g>
  <g
     transform="translate(-3.2740521,-4.0223982)"
     style="display:none"
     inkscape:label="line3"
     id="layer4"
     inkscape:groupmode="layer">
    <path
       d="m 82.156273,154.60643 -0.06935,1.39975 0.08776,0.43483 -0.346594,0.44493 0.151139,0.19756 0.2615,-0.13623 0.07535,0.2731 -0.05961,0.818 0.09418,0.34137 -0.247314,0.3211 0.0073,0.62694 -0.44411,-0.82582 -0.0851,0.30865 0.251311,0.79413 -0.103267,0.42626 0.45231,0.75546 q 0.248871,0.58516 0.295411,0.83723 l -0.136289,0.17314 -0.224274,-0.7962 -0.07999,1.26113 0.407542,0.52649 -0.10792,0.54281 -0.08288,-0.0169 -0.317119,0.65183 0.196796,1.14692 -0.17108,-0.10304 -0.01995,0.0945 0.310703,0.8593 -0.252409,0.7863 q -0.09817,-0.0389 -0.427486,-0.43199 l -0.185043,0.24659 -0.429926,-0.64097 0.06405,-0.0513 0.236902,0.0748 0.09219,-0.21623 -0.06005,-0.25103 0.110359,-0.33384 -0.164657,-0.19653 -0.06404,0.0515 -0.106814,0.38003 -0.601901,-1.46444 0.01396,-0.34967 -0.446343,-3.33562 0.206535,-0.85251 -0.388265,-0.80685 0.315573,-0.14039 -0.0064,-1.32421 -0.328658,-1.62485 -0.01065,-1.55629 -0.248206,-0.39929 -0.06582,0.0283 -0.258402,-0.88654 0.289204,0.0476 -0.417966,-1.54827 0.07335,-0.28451 -0.299398,-0.53481 -0.08333,-1.0859 0.112131,-0.31074 -0.0069,0.44211 0.08709,0.24896 0.02372,0.48623 0.385151,-1.00566 0.25175,0.44548 0.48067,-0.29252 0.249311,0.23651 0.219171,-0.15627 0.363885,0.13477 0.27236,0.53686 -0.05983,0.28348 0.29164,0.25651 0.05674,0.73934 -0.04055,0.003 -0.01462,0.16381 0.301396,1.09242 -0.304708,0.81355 0.139393,0.22171 0.299614,-0.34836 0.01351,-0.001 0.02415,0.13759 -0.0091,0.76764 z m -1.437165,-4.37512 -0.01241,-0.16174 -0.164657,-0.19652 -0.07047,0.14485 0.195239,0.24066 z m -0.05383,3.37399 -0.351698,-0.50754 -0.12476,1.03215 0.170193,-0.6173 z m 1.465957,1.56082 -0.142499,-0.61655 -0.264604,-0.25859 -0.05451,0.35279 0.302279,0.39514 z m -1.971214,0.36044 -0.01773,-0.23105 -0.157563,-0.10408 -0.01351,0.001 -0.0047,0.11652 0.129422,0.26896 z m 1.38705,-0.1762 -0.181496,0.29282 -0.164658,-0.19654 0.02837,0.36967 0.09884,0.22483 z m -1.222143,5.16021 -0.02305,-0.30036 -0.04055,0.003 0.02305,0.30036 z m 1.515611,3.62541 q 0.01,-0.0472 -0.162443,-0.52207 l -0.0051,0.46521 0.131417,0.82657 z m -2.160533,-9.54873 -0.248871,-0.58514 0.134515,-0.19625 z m 2.888507,7.51742 -0.02748,0.35071 -0.06715,-0.34345 z m -0.0485,4.86099 -0.191695,-0.19446 0.04344,-0.14278 0.134075,0.1524 z"
       style="font-style:normal;font-variant:normal;font-weight:normal;font-stretch:normal;font-size:18.1502px;line-height:1.25;font-family:EraserDust;-inkscape-font-specification:EraserDust;fill:#ffffff;fill-opacity:1;stroke:none;stroke-width:0.453756"
       id="path862"
       inkscape:connector-curvature="0"
       transform="translate(-57.23278,-142.80916)" />
  </g>
  <g
     transform="translate(-3.2740521,-4.0223982)"
     style="display:none"
     inkscape:label="line4"
     id="layer5"
     inkscape:groupmode="layer">
    <path
       d="m 88.425924,160.35045 -0.136844,-1.29762 0.04207,-0.41092 -0.294738,-0.38929 0.105262,-0.19463 0.210531,0.10807 0.04207,-0.25952 -0.09474,-0.75696 0.0526,-0.32441 -0.210532,-0.28114 -0.0316,-0.58395 -0.294738,0.80021 -0.08421,-0.28115 0.147365,-0.75695 -0.105262,-0.38929 0.305266,-0.73533 q 0.1579,-0.56229 0.178948,-0.80021 l -0.115789,-0.15137 -0.126318,0.75695 -0.136845,-1.16787 0.284218,-0.51906 -0.11579,-0.49742 -0.06314,0.0216 -0.284217,-0.58394 0.08421,-1.08135 -0.126317,0.10807 -0.02107,-0.0864 0.189475,-0.82184 -0.242106,-0.71369 q -0.07368,0.0433 -0.305266,0.43255 l -0.157893,-0.21628 -0.294738,0.62718 0.0526,0.0433 0.178948,-0.0864 0.08421,0.19464 -0.0316,0.23789 0.105262,0.30279 -0.11579,0.19464 -0.0526,-0.0433 -0.105262,-0.34604 -0.378952,1.40576 0.0316,0.32442 -0.147366,3.13594 0.210524,0.77858 -0.252627,0.77856 0.252627,0.10808 0.07369,1.23275 -0.157893,1.53553 0.08421,1.44901 -0.16842,0.38929 -0.0526,-0.0216 -0.147373,0.84345 0.221059,-0.0649 -0.231579,1.47064 0.07368,0.25953 -0.199997,0.51905 v 1.01648 l 0.105262,0.28116 -0.0316,-0.41092 0.05267,-0.2379 -0.01053,-0.45418 0.357896,0.90835 0.168421,-0.43254 0.389479,0.2379 0.178949,-0.2379 0.178948,0.12972 0.27369,-0.15139 0.178948,-0.51905 -0.06314,-0.25953 0.210524,-0.25953 v -0.69206 h -0.0316 l -0.02107,-0.15139 0.168421,-1.03811 -0.28421,-0.73532 0.09473,-0.21627 0.252635,0.30277 h 0.01053 l 0.01054,-0.12972 -0.0526,-0.71369 z m -0.852644,4.17405 v 0.15139 l -0.11579,0.19464 -0.06314,-0.12972 0.136845,-0.2379 z m -0.242107,-3.13594 -0.242107,0.49743 -0.157893,-0.95159 0.16842,0.5623 z m 1.042113,-1.55716 -0.07368,0.58394 -0.189476,0.25953 -0.06314,-0.32442 0.210524,-0.38929 z m -1.547375,-0.19464 v 0.21627 l -0.11579,0.10808 h -0.01054 l -0.01053,-0.10808 0.08421,-0.25953 z m 1.084217,0.0649 -0.157893,-0.25952 -0.115797,0.19464 v -0.34604 l 0.06314,-0.21626 z m -1.252645,-4.71472 v 0.28115 h -0.0316 v -0.28115 z M 87.61539,151.505 q 0.01053,0.0433 -0.09474,0.49742 l -0.0316,-0.43255 0.0526,-0.77858 z m -1.105272,9.04015 -0.157901,0.5623 0.115797,0.17302 z m 1.789489,-7.20185 -0.04214,-0.3244 -0.0316,0.3244 z m -0.326321,-4.52008 -0.136844,0.19464 0.04207,0.12972 0.09474,-0.15138 z"
       style="font-style:normal;font-variant:normal;font-weight:normal;font-stretch:normal;font-size:15.4504px;line-height:1.25;font-family:EraserDust;-inkscape-font-specification:EraserDust;fill:#ffffff;fill-opacity:1;stroke:none;stroke-width:0.38626"
       id="path865"
       inkscape:connector-curvature="0"
       transform="translate(-57.23278,-142.80916)" />
  </g>
  <g
     transform="translate(-3.2740521,-4.0223982)"
     style="display:none"
     inkscape:label="line5"
     id="layer6"
     inkscape:groupmode="layer">
    <path
       d="m 83.523702,156.65641 -2.465461,0.91163 -0.741989,0.39038 -0.854701,-0.0285 -0.312767,0.28651 0.295773,0.16111 -0.461592,0.26501 -1.444951,0.51403 -0.576975,0.3313 -0.616225,-0.0178 -1.095848,0.44596 1.348408,-1.01356 -0.558931,0.13256 -1.335139,0.80228 -0.768761,0.19704 -1.223466,0.97236 q -0.969855,0.65363 -1.400928,0.87569 l -0.332915,-0.0125 1.344688,-0.77721 -2.225125,0.80417 -0.832447,0.7682 -0.973821,0.27405 0.01141,-0.0931 -1.210439,0.14517 -1.964631,0.99572 0.142988,-0.23994 -0.169779,0.0466 -1.43621,0.90614 -1.431679,0.30276 q 0.04669,-0.12355 0.662672,-0.72163 l -0.472183,-0.009 1.027958,-0.87028 0.103984,0.0269 -0.07906,0.28469 0.398705,-0.0609 0.426302,-0.2346 0.608537,-0.1254 0.307992,-0.29904 -0.103988,-0.0268 -0.68865,0.16122 2.431799,-1.61527 0.615169,-0.23105 5.741363,-2.77229 1.537526,-0.39408 1.327451,-0.94551 0.314869,0.21124 2.316646,-0.9331 2.772402,-1.45954 2.721987,-1.09966 0.644626,-0.52289 -0.06393,-0.0448 1.495365,-0.87392 -0.01991,0.31692 2.618811,-1.49355 0.5141,-0.12718 0.870644,-0.66794 1.882659,-0.84173 0.568479,-0.1075 -0.775395,0.30269 -0.416751,0.25966 -0.845955,0.36358 1.844707,-0.32608 -0.72474,0.55871 0.617279,0.2667 -0.359459,0.41005 0.321505,0.1056 -0.156261,0.45121 -0.880191,0.64288 -0.509325,0.13972 -0.385192,0.46556 -1.28181,0.57309 -0.01432,-0.0376 -0.289951,0.10029 -1.846323,1.06016 -1.490836,0.27053 -0.357594,0.29189 0.675377,0.05 0.0048,0.0125 -0.235572,0.11997 -1.345739,0.52835 z m 7.34419,-4.47162 0.280397,-0.12536 0.30799,-0.29904 -0.268986,0.0323 -0.378555,0.35992 z m -5.918015,2.30859 0.81149,-0.70016 -1.834109,0.60001 1.117865,-0.26511 z m -2.411403,2.53019 1.048103,-0.57128 0.394742,-0.44049 -0.629497,0.19344 -0.625529,0.57301 z m -1.062353,-1.6811 0.400565,-0.1791 0.147763,-0.2274 -0.0048,-0.0125 -0.20505,0.077 -0.442483,0.31517 z m 0.611943,1.23712 -0.552295,0.0269 0.30799,-0.29904 -0.640907,0.28655 -0.371918,0.25428 z m -9.300493,2.41283 0.520735,-0.23282 -0.01432,-0.0376 -0.520735,0.23282 z m -6.014637,4.02384 q 0.08488,-0.0233 0.878333,-0.5247 l -0.815452,0.3206 -1.418165,0.70739 z m 16.242335,-8.80196 0.969855,-0.65363 0.372971,-0.005 z m -12.527187,8.0943 -0.619935,0.21853 0.586528,-0.30622 z m -8.519833,3.35451 0.298442,-0.3241 0.259427,-0.0574 -0.237426,0.23816 z"
       style="font-style:normal;font-variant:normal;font-weight:normal;font-stretch:normal;font-size:24.8205px;line-height:1.25;font-family:EraserDust;-inkscape-font-specification:EraserDust;fill:#ffffff;fill-opacity:1;stroke:none;stroke-width:0.620513"
       id="path853"
       inkscape:connector-curvature="0"
       transform="translate(-57.23278,-142.80916)" />
  </g>
</svg>
