<?xml version="1.0" encoding="UTF-8" standalone="no"?>
<svg
   xmlns:dc="http://purl.org/dc/elements/1.1/"
   xmlns:cc="http://creativecommons.org/ns#"
   xmlns:rdf="http://www.w3.org/1999/02/22-rdf-syntax-ns#"
   xmlns:svg="http://www.w3.org/2000/svg"
   xmlns="http://www.w3.org/2000/svg"
   version="1.1"
   id="svg7326"
   viewBox="0 0 41.142708 28.971876"
   height="28.971876mm"
   width="41.142708mm">
  <defs
     id="defs7328">
    <filter
       style="color-interpolation-filters:sRGB"
       id="filter962"
       x="-0.30000001">
      <feBlend
         mode="normal"
         in2="SourceGraphic"
         id="feBlend956"
         result="result2" />
      <feTurbulence
         id="feTurbulence958"
         result="result1"
         type="fractalNoise"
         baseFrequency="0.060999999999999985"
         numOctaves="1"
         seed="339" />
      <feDisplacementMap
         in2="result1"
         id="feDisplacementMap960"
         scale="2.4"
         xChannelSelector="B"
         yChannelSelector="G"
         in="result2" />
    </filter>
  </defs>
  <metadata
     id="metadata7331">
    <rdf:RDF>
      <cc:Work
         rdf:about="">
        <dc:format>image/svg+xml</dc:format>
        <dc:type
           rdf:resource="http://purl.org/dc/dcmitype/StillImage" />
        <dc:title></dc:title>
      </cc:Work>
    </rdf:RDF>
  </metadata>
  <g
     id="layer1"
     transform="translate(-57.23278,-142.80916)">
    <g
       style="fill:none;filter:url(#filter903)"
       id="g924">
      <g
         style="font-style:normal;font-weight:normal;font-size:24.8205px;line-height:1.25;font-family:sans-serif;fill:#ffffff;fill-opacity:1;stroke:none;stroke-width:0.620513"
         id="bar5"
         transform="matrix(0.19697554,0.51704591,-1.6525832,0.7388664,0,0)"
         aria-label="I">
        <path
           id="path853"
           style="font-style:normal;font-variant:normal;font-weight:normal;font-stretch:normal;font-family:EraserDust;-inkscape-font-specification:EraserDust;fill:#ffffff;stroke-width:0.620513"
           d="m 320.60061,-12.328108 -0.3151,1.454326 0.0969,0.460537 -0.67868,0.4362975 0.24238,0.2181489 0.48478,-0.1211938 0.0969,0.2908652 -0.21815,0.8483569 0.1212,0.3635816 -0.48478,0.315104 -0.0727,0.6544467 -0.67869,-0.8968344 -0.19391,0.315104 0.33934,0.8483569 -0.24238,0.4362978 0.70292,0.8241182 q 0.36358,0.630208 0.41206,0.8968344 l -0.26663,0.1696714 -0.29086,-0.8483569 -0.31511,1.3088935 0.65445,0.5817305 -0.26663,0.5574917 -0.14543,-0.024239 -0.65445,0.6544468 0.19392,1.2119384 -0.29087,-0.1211938 -0.0485,0.096955 0.4363,0.92107326 -0.55749,0.79987937 q -0.16967,-0.0484775 -0.70293,-0.48477537 l -0.36358,0.24238769 -0.67868,-0.7029243 0.12119,-0.0484775 0.41206,0.0969551 0.19391,-0.21814892 -0.0727,-0.26662646 0.24239,-0.3393428 -0.26662,-0.2181489 -0.1212,0.048478 -0.24239,0.3878203 -0.87259,-1.57552 0.0727,-0.3635816 -0.33934,-3.5146215 0.48478,-0.8725956 -0.58173,-0.8725957 0.58173,-0.1211939 0.16967,-1.3816098 -0.36358,-1.7209526 0.19391,-1.623998 -0.38782,-0.436297 -0.1212,0.02424 -0.33934,-0.945312 0.50901,0.07272 -0.53325,-1.648237 0.16967,-0.290865 -0.46053,-0.58173 v -1.139222 l 0.24238,-0.315104 -0.0727,0.460536 0.12119,0.266627 -0.0242,0.509014 0.82412,-1.018028 0.38782,0.484775 0.89684,-0.266627 0.41205,0.266627 0.41206,-0.145433 0.63021,0.169672 0.41206,0.58173 -0.14543,0.290865 0.48477,0.290866 v 0.77564 h -0.0727 l -0.0485,0.169672 0.38782,1.16346 -0.65445,0.824119 0.21815,0.242387 0.58173,-0.339342 h 0.0242 l 0.0242,0.145432 -0.12119,0.79988 z m -1.96334,-4.678082 v -0.169672 l -0.26663,-0.218149 -0.14543,0.145433 0.3151,0.266626 z m -0.55749,3.514621 -0.55749,-0.557492 -0.36359,1.066506 0.38783,-0.630208 z m 2.39964,1.745191 -0.16968,-0.654446 -0.43629,-0.290866 -0.14544,0.363582 0.48478,0.436298 z m -3.5631,0.218149 v -0.242387 l -0.26663,-0.121194 h -0.0242 l -0.0242,0.121194 0.19391,0.290865 z m 2.49659,-0.07272 -0.36358,0.290865 -0.26663,-0.218149 v 0.387821 l 0.14543,0.242387 z m -2.88441,5.2840516 v -0.315104 h -0.0727 v 0.315104 z m 2.20572,3.9024418 q 0.0242,-0.048478 -0.21814,-0.5574916 l -0.0727,0.4847753 0.12119,0.8725957 z m -2.54507,-10.1318054 -0.36358,-0.630208 0.26663,-0.19391 z m 4.12059,8.0715101 -0.0969,0.3635815 -0.0727,-0.3635815 z m -0.7514,5.06590269 -0.3151,-0.21814892 0.0969,-0.14543261 0.21815,0.16967138 z" />
      </g>
      <g
         style="font-style:normal;font-weight:normal;font-size:17.5346px;line-height:1.25;font-family:sans-serif;fill:#ffffff;fill-opacity:1;stroke:none;stroke-width:0.438366"
         id="bar1"
         transform="scale(-0.79176621,1.2629991)"
         aria-label="I">
        <path
           id="path856"
           style="font-style:normal;font-variant:normal;font-weight:normal;font-stretch:normal;font-family:EraserDust;-inkscape-font-specification:EraserDust;fill:#ffffff;stroke-width:0.438366"
           d="m -84.82646,121.81227 -0.222608,1.02742 0.06849,0.32535 -0.479462,0.30823 0.171237,0.15411 0.342472,-0.0856 0.06849,0.20548 -0.154113,0.59933 0.08562,0.25685 -0.342472,0.22261 -0.05137,0.46234 -0.479462,-0.63357 -0.136989,0.2226 0.239731,0.59933 -0.171237,0.30823 0.496586,0.5822 q 0.256854,0.44521 0.291101,0.63357 l -0.188359,0.11987 -0.205484,-0.59933 -0.222607,0.92468 0.462338,0.41096 -0.18836,0.39385 -0.102742,-0.0171 -0.462338,0.46234 0.136989,0.85618 -0.205484,-0.0856 -0.03425,0.0685 0.308226,0.6507 -0.393844,0.56508 q -0.119865,-0.0343 -0.496585,-0.34247 l -0.256855,0.17123 -0.479462,-0.49658 0.08562,-0.0342 0.291101,0.0685 0.136989,-0.15411 -0.05137,-0.18836 0.171236,-0.23973 -0.18836,-0.15411 -0.08562,0.0342 -0.171237,0.27397 -0.61645,-1.11303 0.05137,-0.25686 -0.239731,-2.48292 0.342472,-0.61645 -0.410967,-0.61646 0.410967,-0.0856 0.119866,-0.97605 -0.256855,-1.21578 0.136989,-1.14728 -0.273978,-0.30823 -0.08562,0.0171 -0.239731,-0.66783 0.359597,0.0514 -0.37672,-1.16441 0.119865,-0.20548 -0.325349,-0.41097 v -0.80481 l 0.171236,-0.22261 -0.05137,0.32535 0.08562,0.18836 -0.01712,0.3596 0.582203,-0.7192 0.273979,0.34248 0.633574,-0.18836 0.291102,0.18836 0.291101,-0.10275 0.445215,0.11987 0.291102,0.41097 -0.102742,0.20548 0.342473,0.20548 v 0.54796 h -0.05137 l -0.03425,0.11987 0.273978,0.82193 -0.462338,0.5822 0.154113,0.17124 0.410967,-0.23973 h 0.01712 l 0.01712,0.10274 -0.08562,0.56508 z m -1.387015,-3.30486 v -0.11986 l -0.18836,-0.15412 -0.102741,0.10275 0.222607,0.18836 z m -0.393843,2.48293 -0.393844,-0.39385 -0.256854,0.75344 0.273978,-0.44521 z m 1.695239,1.2329 -0.119865,-0.46234 -0.308225,-0.20548 -0.102742,0.25685 0.342472,0.30823 z m -2.517174,0.15411 v -0.17123 l -0.188359,-0.0856 h -0.01712 l -0.01712,0.0856 0.136989,0.20548 z m 1.763735,-0.0514 -0.256855,0.20549 -0.18836,-0.15412 v 0.27398 l 0.102742,0.17124 z m -2.037713,3.73295 v -0.2226 h -0.05137 v 0.2226 z m 1.558251,2.75691 q 0.01712,-0.0343 -0.154113,-0.39385 l -0.05137,0.34248 0.08562,0.61645 z m -1.797981,-7.15768 -0.256855,-0.44521 0.18836,-0.13699 z m 2.911017,5.70217 -0.06849,0.25685 -0.05137,-0.25685 z m -0.530833,3.57884 -0.222607,-0.15411 0.06849,-0.10275 0.154112,0.11987 z" />
      </g>
      <g
         style="font-style:normal;font-weight:normal;font-size:17.5346px;line-height:1.25;font-family:sans-serif;fill:#ffffff;fill-opacity:1;stroke:none;stroke-width:0.438366"
         id="bar2"
         transform="matrix(0.79020788,0.04965111,-0.07920179,1.2605133,0,0)"
         aria-label="I">
        <path
           id="path859"
           style="font-style:normal;font-variant:normal;font-weight:normal;font-stretch:normal;font-family:EraserDust;-inkscape-font-specification:EraserDust;fill:#ffffff;stroke-width:0.438366"
           d="m 108.58542,117.70448 -0.22261,1.02742 0.0685,0.32535 -0.47946,0.30823 0.17123,0.15411 0.34247,-0.0856 0.0685,0.20549 -0.15411,0.59932 0.0856,0.25686 -0.34247,0.2226 -0.0514,0.46234 -0.47946,-0.63357 -0.13699,0.2226 0.23973,0.59933 -0.17124,0.30823 0.49659,0.5822 q 0.25685,0.44522 0.2911,0.63358 l -0.18836,0.11986 -0.20548,-0.59933 -0.22261,0.92468 0.46234,0.41097 -0.18836,0.39384 -0.10274,-0.0171 -0.46234,0.46233 0.13699,0.85619 -0.20549,-0.0856 -0.0342,0.0685 0.30822,0.6507 -0.39384,0.56508 q -0.11987,-0.0343 -0.49659,-0.34247 l -0.25685,0.17123 -0.47946,-0.49658 0.0856,-0.0343 0.2911,0.0685 0.13699,-0.15412 -0.0514,-0.18836 0.17123,-0.23973 -0.18836,-0.15411 -0.0856,0.0343 -0.17123,0.27398 -0.61645,-1.11304 0.0514,-0.25686 -0.23973,-2.48292 0.34247,-0.61645 -0.41097,-0.61645 0.41097,-0.0856 0.11987,-0.97605 -0.25686,-1.21578 0.13699,-1.14728 -0.27398,-0.30823 -0.0856,0.0171 -0.23973,-0.66782 0.3596,0.0514 -0.37672,-1.16441 0.11986,-0.20548 -0.32534,-0.41097 v -0.80481 l 0.17123,-0.22261 -0.0514,0.32535 0.0856,0.18836 -0.0171,0.3596 0.5822,-0.7192 0.27398,0.34248 0.63357,-0.18836 0.2911,0.18836 0.2911,-0.10274 0.44522,0.11986 0.2911,0.41097 -0.10274,0.20548 0.34247,0.20549 v 0.54795 h -0.0514 l -0.0343,0.11987 0.27398,0.82193 -0.46234,0.5822 0.15412,0.17124 0.41096,-0.23973 h 0.0171 l 0.0171,0.10274 -0.0856,0.56508 z m -1.38701,-3.30486 v -0.11986 l -0.18836,-0.15411 -0.10275,0.10274 0.22261,0.18836 z m -0.39385,2.48293 -0.39384,-0.39384 -0.25686,0.75344 0.27398,-0.44522 z m 1.69524,1.2329 -0.11986,-0.46234 -0.30823,-0.20548 -0.10274,0.25685 0.34247,0.30823 z m -2.51717,0.15411 v -0.17123 l -0.18836,-0.0856 h -0.0171 l -0.0171,0.0856 0.13699,0.20548 z m 1.76373,-0.0514 -0.25685,0.20549 -0.18836,-0.15412 v 0.27398 l 0.10274,0.17124 z m -2.03771,3.73296 v -0.22261 h -0.0514 v 0.22261 z m 1.55825,2.7569 q 0.0171,-0.0343 -0.15411,-0.39384 l -0.0514,0.34247 0.0856,0.61645 z m -1.79798,-7.15768 -0.25686,-0.44521 0.18836,-0.13699 z m 2.91102,5.70217 -0.0685,0.25686 -0.0514,-0.25686 z m -0.53084,3.57884 -0.2226,-0.15411 0.0685,-0.10274 0.15411,0.11986 z" />
      </g>
      <g
         style="font-style:normal;font-weight:normal;font-size:18.1502px;line-height:1.25;font-family:sans-serif;fill:#ffffff;fill-opacity:1;stroke:none;stroke-width:0.453756"
         id="bar3"
         transform="matrix(0.76266968,-0.05852709,0.10003083,1.3035073,0,0)"
         aria-label="I">
        <path
           id="path862"
           style="font-style:normal;font-variant:normal;font-weight:normal;font-stretch:normal;font-family:EraserDust;-inkscape-font-specification:EraserDust;fill:#ffffff;stroke-width:0.453756"
           d="m 91.625892,122.722 -0.230422,1.06349 0.0709,0.33677 -0.496294,0.31905 0.177248,0.15952 0.354496,-0.0886 0.0709,0.2127 -0.159523,0.62037 0.08862,0.26587 -0.354496,0.23042 -0.05317,0.47857 -0.496294,-0.65582 -0.141799,0.23042 0.248148,0.62037 -0.177248,0.31905 0.514019,0.60264 q 0.265872,0.46085 0.301322,0.65582 l -0.194973,0.12407 -0.212698,-0.62036 -0.230422,0.95714 0.478569,0.42539 -0.194973,0.40767 -0.106348,-0.0177 -0.47857,0.47857 0.141798,0.88624 -0.212697,-0.0886 -0.03545,0.0709 0.319047,0.67354 -0.407671,0.58492 q -0.124074,-0.0354 -0.514019,-0.35449 l -0.265872,0.17724 -0.496295,-0.51401 0.08862,-0.0354 0.301322,0.0709 0.141798,-0.15952 -0.05317,-0.19497 0.177248,-0.24815 -0.194973,-0.15952 -0.08862,0.0355 -0.177248,0.28359 -0.638093,-1.15211 0.05317,-0.26587 -0.248147,-2.5701 0.354496,-0.63809 -0.425395,-0.63809 0.425395,-0.0886 0.124074,-1.01031 -0.265872,-1.25846 0.141798,-1.18756 -0.283597,-0.31905 -0.08862,0.0177 -0.248147,-0.69126 0.372221,0.0532 -0.389946,-1.20528 0.124074,-0.2127 -0.336771,-0.4254 v -0.83306 l 0.177248,-0.23043 -0.05317,0.33678 0.08862,0.19497 -0.01772,0.37222 0.602643,-0.74444 0.283597,0.35449 0.655818,-0.19497 0.301321,0.19497 0.301322,-0.10635 0.460845,0.12408 0.301321,0.42539 -0.106348,0.2127 0.354496,0.2127 v 0.56719 h -0.05317 l -0.03545,0.12408 0.283597,0.85079 -0.47857,0.60264 0.159523,0.17725 0.425395,-0.24815 h 0.01772 l 0.01772,0.10635 -0.08862,0.58492 z m -1.435709,-3.42088 v -0.12408 l -0.194973,-0.15952 -0.106348,0.10635 0.230422,0.19497 z m -0.40767,2.57009 -0.407671,-0.40767 -0.265872,0.77989 0.283597,-0.46084 z m 1.754755,1.27619 -0.124073,-0.47857 -0.319047,-0.2127 -0.106349,0.26587 0.354497,0.31905 z m -2.605546,0.15952 v -0.17725 l -0.194973,-0.0886 h -0.01772 l -0.01772,0.0886 0.141798,0.2127 z m 1.825655,-0.0532 -0.265872,0.2127 -0.194973,-0.15953 v 0.2836 l 0.106349,0.17725 z m -2.109252,3.86401 v -0.23043 h -0.05317 v 0.23043 z m 1.612958,2.85369 q 0.01772,-0.0354 -0.159524,-0.40767 l -0.05317,0.3545 0.08862,0.63809 z m -1.861105,-7.40897 -0.265872,-0.46084 0.194973,-0.1418 z m 3.013217,5.90236 -0.0709,0.26587 -0.05318,-0.26587 z m -0.549469,3.70449 -0.230423,-0.15953 0.0709,-0.10635 0.159523,0.12408 z" />
      </g>
      <g
         style="font-style:normal;font-weight:normal;font-size:15.4504px;line-height:1.25;font-family:sans-serif;fill:#ffffff;fill-opacity:1;stroke:none;stroke-width:0.38626"
         id="bar4"
         transform="scale(0.69765408,-1.4333751)"
         aria-label="I">
        <path
           id="path865"
           style="font-style:normal;font-variant:normal;font-weight:normal;font-stretch:normal;font-family:EraserDust;-inkscape-font-specification:EraserDust;fill:#ffffff;stroke-width:0.38626"
           d="m 126.74752,-111.86915 -0.19615,0.90529 0.0603,0.28668 -0.42247,0.27159 0.15088,0.13579 0.30177,-0.0754 0.0603,0.18106 -0.13579,0.52809 0.0754,0.22633 -0.30177,0.19614 -0.0453,0.40739 -0.42247,-0.55827 -0.12071,0.19615 0.21123,0.52809 -0.15088,0.27159 0.43756,0.513 q 0.22633,0.39229 0.2565,0.55827 l -0.16597,0.10561 -0.18106,-0.52809 -0.19615,0.81477 0.40739,0.36212 -0.16597,0.34703 -0.0905,-0.0151 -0.40739,0.40739 0.12071,0.75441 -0.18106,-0.0754 -0.0302,0.0603 0.27159,0.57336 -0.34703,0.49791 q -0.10561,-0.0302 -0.43756,-0.30177 l -0.22632,0.15089 -0.42247,-0.43756 0.0754,-0.0302 0.2565,0.0603 0.12071,-0.13579 -0.0453,-0.16597 0.15088,-0.21124 -0.16597,-0.13579 -0.0754,0.0302 -0.15088,0.24142 -0.54318,-0.98074 0.0453,-0.22633 -0.21123,-2.1878 0.30176,-0.54318 -0.36211,-0.54317 0.36211,-0.0754 0.10562,-0.86003 -0.22632,-1.07127 0.1207,-1.01091 -0.24141,-0.27159 -0.0754,0.0151 -0.21124,-0.58844 0.31686,0.0453 -0.33194,-1.026 0.10561,-0.18106 -0.28667,-0.36212 v -0.70915 l 0.15088,-0.19615 -0.0453,0.28668 0.0755,0.16597 -0.0151,0.31686 0.513,-0.63371 0.24141,0.30176 0.55827,-0.16597 0.2565,0.16597 0.2565,-0.0905 0.3923,0.10562 0.2565,0.36212 -0.0905,0.18106 0.30176,0.18106 v 0.48282 h -0.0453 l -0.0302,0.10562 0.24141,0.72424 -0.40738,0.513 0.13579,0.15088 0.36212,-0.21123 h 0.0151 l 0.0151,0.0905 -0.0754,0.49791 z m -1.22216,-2.91204 v -0.10562 l -0.16597,-0.13579 -0.0905,0.0905 0.19615,0.16597 z m -0.34703,2.1878 -0.34703,-0.34703 -0.22632,0.66388 0.24141,-0.39229 z m 1.49374,1.08636 -0.10561,-0.40739 -0.27159,-0.18106 -0.0905,0.22633 0.30176,0.27159 z m -2.21797,0.13579 v -0.15088 l -0.16597,-0.0754 h -0.0151 l -0.0151,0.0754 0.12071,0.18106 z m 1.55409,-0.0453 -0.22632,0.18106 -0.16598,-0.13579 v 0.24141 l 0.0905,0.15088 z m -1.79551,3.28925 v -0.19615 h -0.0453 v 0.19615 z m 1.37304,2.42921 q 0.0151,-0.0302 -0.1358,-0.34703 l -0.0453,0.30177 0.0754,0.54318 z m -1.58427,-6.3069 -0.22633,-0.39229 0.16598,-0.12071 z m 2.56501,5.0244 -0.0604,0.22632 -0.0453,-0.22632 z m -0.46774,3.15345 -0.19615,-0.13579 0.0603,-0.0905 0.1358,0.10561 z" />
      </g>
    </g>
  </g>
</svg>
