<?xml version="1.0" encoding="UTF-8" standalone="no"?>
<!-- Created with Inkscape (http://www.inkscape.org/) -->

<svg
   xmlns:dc="http://purl.org/dc/elements/1.1/"
   xmlns:cc="http://creativecommons.org/ns#"
   xmlns:rdf="http://www.w3.org/1999/02/22-rdf-syntax-ns#"
   xmlns:svg="http://www.w3.org/2000/svg"
   xmlns="http://www.w3.org/2000/svg"
   xmlns:sodipodi="http://sodipodi.sourceforge.net/DTD/sodipodi-0.dtd"
   xmlns:inkscape="http://www.inkscape.org/namespaces/inkscape"
   width="21.828125mm"
   height="21.828125mm"
   viewBox="0 0 21.828125 21.828125"
   id="svg7326"
   version="1.1"
   inkscape:version="0.91+devel+osxmenu r12922"
   sodipodi:docname="trumpfC.svg">
  <defs
     id="defs7328" />
  <sodipodi:namedview
     id="base"
     pagecolor="#000000"
     bordercolor="#666666"
     borderopacity="1.0"
     inkscape:pageopacity="0"
     inkscape:pageshadow="2"
     inkscape:zoom="2"
     inkscape:cx="16.44436"
     inkscape:cy="53.85852"
     inkscape:document-units="mm"
     inkscape:current-layer="layer1"
     showgrid="false"
     fit-margin-top="0"
     fit-margin-left="0"
     fit-margin-right="0"
     fit-margin-bottom="0"
     inkscape:window-width="1449"
     inkscape:window-height="1329"
     inkscape:window-x="14"
     inkscape:window-y="23"
     inkscape:window-maximized="0"
     inkscape:snap-page="true" />
  <metadata
     id="metadata7331">
    <rdf:RDF>
      <cc:Work
         rdf:about="">
        <dc:format>image/svg+xml</dc:format>
        <dc:type
           rdf:resource="http://purl.org/dc/dcmitype/StillImage" />
        <dc:title></dc:title>
      </cc:Work>
    </rdf:RDF>
  </metadata>
  <g
     inkscape:label="Layer 1"
     inkscape:groupmode="layer"
     id="layer1"
     transform="translate(-75.62132,-127.11406)">
    <g
       transform="matrix(0.26458333,0,0,0.26458333,-23.46223,289.76678)"
       id="g7935"
       style="stroke:#ffffff;stroke-opacity:1;stroke-width:2.1354331;stroke-miterlimit:4;stroke-dasharray:none">
      <path
         style="fill:#505050;fill-opacity:1;stroke-width:2.1354331;stroke:#ffffff;stroke-opacity:1;stroke-miterlimit:4;stroke-dasharray:none"
         id="path7175"
         d="m 415.74936,-605.17158 c 0,0 -5.0632,8.86586 -8.8452,13.99111 -3.7613,5.12524 -7.2952,7.27454 -11.8005,12.23446 -4.5466,5.00125 -7.8325,8.08054 -7.8325,17.19439 0,7.58454 6.5512,13.51578 14.1771,13.51578 4.8566,0 9.1345,-2.4593 11.7178,-6.17923 -0.5786,1.7153 -1.24,3.36861 -2.0666,4.79458 -3.4926,6.03457 -9.2792,7.79121 -9.2792,7.79121 l 27.8375,0 c 0,0 -5.7865,-1.75664 -9.2585,-7.79121 -0.8266,-1.42597 -1.5086,-3.07928 -2.0873,-4.79458 2.5833,3.71993 6.8612,6.17923 11.7385,6.17923 7.6052,0 14.1564,-5.93124 14.1564,-13.51578 0,-9.11385 -3.2859,-12.19314 -7.8325,-17.19439 -4.5053,-4.95992 -8.0392,-7.10922 -11.8005,-12.23446 -3.7819,-5.12525 -8.8245,-13.99111 -8.8245,-13.99111 z"
         inkscape:connector-curvature="0" />
    </g>
  </g>
</svg>
